G75*
G70*
%OFA0B0*%
%FSLAX24Y24*%
%IPPOS*%
%LPD*%
%AMOC8*
5,1,8,0,0,1.08239X$1,22.5*
%
%ADD10C,0.0000*%
%ADD11C,0.0060*%
%ADD12C,0.0050*%
%ADD13C,0.0040*%
%ADD14C,0.0030*%
D10*
X000101Y000101D02*
X000101Y031101D01*
X022101Y031101D01*
X022093Y000101D01*
X000101Y000101D01*
X022101Y004601D02*
X022101Y009601D01*
X022101Y013101D02*
X022101Y018101D01*
X022101Y021601D02*
X022101Y026601D01*
D11*
X021983Y026384D02*
X020093Y026384D01*
X019896Y026187D01*
X019896Y022014D01*
X020093Y021817D01*
X021983Y021817D01*
X021983Y017884D02*
X020093Y017884D01*
X019896Y017687D01*
X019896Y013514D01*
X020093Y013317D01*
X021983Y013317D01*
X021983Y009384D02*
X020093Y009384D01*
X019896Y009187D01*
X019896Y005014D01*
X020093Y004817D01*
X021983Y004817D01*
X018085Y006313D02*
X016117Y006313D01*
X016117Y007888D01*
X018085Y007888D01*
X018085Y006313D01*
X013835Y003638D02*
X013835Y002063D01*
X011867Y002063D01*
X011867Y003638D01*
X013835Y003638D01*
X008851Y007651D02*
X008851Y008851D01*
X008851Y010251D02*
X008851Y010651D01*
X008851Y012051D02*
X008851Y012351D01*
X008851Y013751D02*
X008851Y015001D01*
X008851Y016201D02*
X008851Y017451D01*
X008851Y018851D02*
X008851Y019151D01*
X008851Y020551D02*
X008851Y020951D01*
X008851Y022351D02*
X008851Y023551D01*
X007751Y024701D02*
X006901Y024701D01*
X005501Y024701D02*
X004401Y024701D01*
X003001Y024701D02*
X002751Y024701D01*
X002251Y024201D01*
X002251Y023601D01*
X002251Y022201D02*
X002251Y019101D01*
X002251Y017701D02*
X002251Y016301D01*
X002251Y014901D02*
X002251Y013501D01*
X002251Y012101D02*
X002251Y009001D01*
X002251Y007551D02*
X002251Y007001D01*
X002751Y006501D01*
X003001Y006501D01*
X004401Y006501D02*
X005451Y006501D01*
X006901Y006501D02*
X007751Y006501D01*
X007163Y027663D02*
X007351Y027851D01*
X007351Y029351D01*
X007163Y029538D01*
X006538Y029538D02*
X006351Y029351D01*
X006163Y029538D01*
X005538Y029538D02*
X005351Y029351D01*
X005163Y029538D01*
X005163Y029538D01*
X004538Y029538D02*
X004351Y029351D01*
X004351Y029351D01*
X004163Y029538D01*
X003538Y029538D02*
X003351Y029351D01*
X003351Y027851D01*
X003538Y027663D01*
X003538Y027663D01*
X004163Y027663D02*
X004351Y027851D01*
X004538Y027663D01*
X004538Y027663D01*
X005163Y027663D02*
X005351Y027851D01*
X005351Y027851D01*
X005538Y027663D01*
X006163Y027663D02*
X006351Y027851D01*
X006538Y027663D01*
D12*
X007623Y028191D02*
X007623Y027010D01*
X007702Y027010D02*
X007702Y028191D01*
X007781Y028191D01*
X007781Y028113D01*
X007781Y028191D02*
X008450Y028191D01*
X009001Y028191D02*
X009749Y028191D01*
X009749Y027010D01*
X009001Y027010D01*
X008450Y027010D02*
X007781Y027010D01*
X007781Y027089D01*
X007781Y027010D02*
X007702Y027010D01*
X007702Y029010D02*
X007702Y030191D01*
X007781Y030191D01*
X007781Y030113D01*
X007781Y030191D02*
X008450Y030191D01*
X009001Y030191D02*
X009749Y030191D01*
X009749Y029010D01*
X009001Y029010D01*
X008450Y029010D02*
X007781Y029010D01*
X007781Y029089D01*
X007781Y029010D02*
X007702Y029010D01*
X007623Y029010D02*
X007623Y030191D01*
X007516Y030076D02*
X007591Y030001D01*
X007591Y029926D01*
X007516Y029851D01*
X007365Y029851D01*
X007290Y029926D01*
X007290Y030001D01*
X007365Y030076D01*
X007516Y030076D01*
X007516Y029851D02*
X007591Y029776D01*
X007591Y029701D01*
X007516Y029626D01*
X007365Y029626D01*
X007290Y029701D01*
X007290Y029776D01*
X007365Y029851D01*
X004697Y026701D02*
X004697Y026251D01*
X004847Y026251D02*
X004546Y026251D01*
X004386Y026401D02*
X004386Y026701D01*
X004546Y026551D02*
X004697Y026701D01*
X004386Y026401D02*
X004236Y026251D01*
X004086Y026401D01*
X004086Y026701D01*
X003926Y026626D02*
X003851Y026701D01*
X003701Y026701D01*
X003626Y026626D01*
X003626Y026551D01*
X003701Y026476D01*
X003851Y026476D01*
X003926Y026401D01*
X003926Y026326D01*
X003851Y026251D01*
X003701Y026251D01*
X003626Y026326D01*
X003301Y027126D02*
X003001Y027126D01*
X003151Y027126D02*
X003151Y027576D01*
X003001Y027426D01*
X003066Y027577D02*
X001885Y027577D01*
X001885Y028325D01*
X001885Y028876D02*
X001885Y029546D01*
X001964Y029546D01*
X001885Y029546D02*
X001885Y029624D01*
X003066Y029624D01*
X003066Y029546D01*
X002988Y029546D01*
X003066Y029546D02*
X003066Y028876D01*
X003066Y028325D02*
X003066Y027577D01*
X003066Y029703D02*
X001885Y029703D01*
X012642Y028455D02*
X012642Y027746D01*
X013154Y027746D01*
X013193Y027626D02*
X012760Y027626D01*
X012760Y027075D01*
X013193Y027075D01*
X013193Y026876D02*
X012760Y026876D01*
X012760Y026325D01*
X013193Y026325D01*
X012973Y026069D02*
X012973Y024435D01*
X012973Y023766D02*
X012973Y022132D01*
X013485Y022132D01*
X013508Y021876D02*
X013863Y021876D01*
X013863Y021798D01*
X013863Y021876D02*
X013941Y021876D01*
X013941Y021325D01*
X013863Y021325D01*
X013863Y021404D01*
X013863Y021325D02*
X013508Y021325D01*
X013508Y021126D02*
X013863Y021126D01*
X013863Y021048D01*
X013863Y021126D02*
X013941Y021126D01*
X013941Y020575D01*
X013863Y020575D01*
X013863Y020654D01*
X013863Y020575D02*
X013508Y020575D01*
X013548Y020455D02*
X013981Y020455D01*
X013981Y020376D01*
X013981Y020455D02*
X014059Y020455D01*
X014059Y019746D01*
X013981Y019746D01*
X013981Y019825D01*
X013981Y019746D02*
X013548Y019746D01*
X013154Y019746D02*
X012642Y019746D01*
X012642Y020455D01*
X013154Y020455D01*
X013193Y020575D02*
X012760Y020575D01*
X012760Y021126D01*
X013193Y021126D01*
X013193Y021325D02*
X012760Y021325D01*
X012760Y021876D01*
X013193Y021876D01*
X014020Y021876D02*
X014020Y021325D01*
X014020Y021126D02*
X014020Y020575D01*
X014138Y020455D02*
X014138Y019746D01*
X014681Y020575D02*
X014681Y021126D01*
X014760Y021126D02*
X014760Y020575D01*
X014839Y020575D01*
X014839Y020654D01*
X014839Y020575D02*
X015193Y020575D01*
X015508Y020575D02*
X015941Y020575D01*
X015941Y021126D01*
X015508Y021126D01*
X015508Y021325D02*
X015941Y021325D01*
X015941Y021876D01*
X015508Y021876D01*
X015611Y022014D02*
X015768Y022014D01*
X015847Y022093D01*
X015847Y022054D01*
X015807Y022014D01*
X015768Y022014D01*
X015807Y022014D02*
X015847Y022014D01*
X015847Y022054D01*
X015847Y022093D02*
X015847Y022250D01*
X015729Y022132D02*
X015217Y022132D01*
X015193Y021876D02*
X014839Y021876D01*
X014839Y021798D01*
X014839Y021876D02*
X014760Y021876D01*
X014760Y021325D01*
X014839Y021325D01*
X014839Y021404D01*
X014839Y021325D02*
X015193Y021325D01*
X015193Y021126D02*
X014839Y021126D01*
X014839Y021048D01*
X014839Y021126D02*
X014760Y021126D01*
X014681Y021325D02*
X014681Y021876D01*
X014626Y022132D02*
X014075Y022132D01*
X015611Y022014D02*
X015639Y022016D01*
X015667Y022021D01*
X015695Y022029D01*
X015721Y022041D01*
X015745Y022056D01*
X015767Y022073D01*
X015788Y022094D01*
X015805Y022116D01*
X015820Y022140D01*
X015832Y022166D01*
X015840Y022194D01*
X015845Y022222D01*
X015847Y022250D01*
X015729Y022132D02*
X015729Y023766D01*
X015729Y024435D02*
X015729Y026069D01*
X015217Y026069D01*
X014626Y026069D02*
X014075Y026069D01*
X014020Y026325D02*
X014020Y026876D01*
X013941Y026876D02*
X013941Y026325D01*
X013863Y026325D01*
X013863Y026404D01*
X013863Y026325D02*
X013508Y026325D01*
X013485Y026069D02*
X012973Y026069D01*
X013508Y026876D02*
X013863Y026876D01*
X013863Y026798D01*
X013863Y026876D02*
X013941Y026876D01*
X013941Y027075D02*
X013941Y027626D01*
X013863Y027626D01*
X013863Y027548D01*
X013863Y027626D02*
X013508Y027626D01*
X013548Y027746D02*
X013981Y027746D01*
X013981Y027825D01*
X013981Y027746D02*
X014059Y027746D01*
X014059Y028455D01*
X013981Y028455D01*
X013981Y028376D01*
X013981Y028455D02*
X013548Y028455D01*
X013154Y028455D02*
X012642Y028455D01*
X013508Y027075D02*
X013863Y027075D01*
X013863Y027154D01*
X013863Y027075D02*
X013941Y027075D01*
X014020Y027075D02*
X014020Y027626D01*
X014138Y027746D02*
X014138Y028455D01*
X017260Y024376D02*
X017260Y023825D01*
X017693Y023825D01*
X018008Y023825D02*
X018363Y023825D01*
X018363Y023904D01*
X018363Y023825D02*
X018441Y023825D01*
X018441Y024376D01*
X018363Y024376D01*
X018363Y024298D01*
X018363Y024376D02*
X018008Y024376D01*
X017693Y024376D02*
X017260Y024376D01*
X018520Y024376D02*
X018520Y023825D01*
X018825Y016504D02*
X019376Y016504D01*
X019376Y016071D01*
X019376Y015756D02*
X019376Y015401D01*
X019298Y015401D01*
X019376Y015401D02*
X019376Y015323D01*
X018825Y015323D01*
X018825Y015401D01*
X018904Y015401D01*
X018825Y015401D02*
X018825Y015756D01*
X018825Y016071D02*
X018825Y016504D01*
X018825Y015244D02*
X019376Y015244D01*
X014751Y009770D02*
X014200Y009770D01*
X014126Y009770D02*
X013575Y009770D01*
X013501Y009770D02*
X012950Y009770D01*
X012950Y009691D02*
X013501Y009691D01*
X013501Y009613D01*
X013423Y009613D01*
X013501Y009613D02*
X013501Y009258D01*
X013575Y009258D02*
X013575Y009613D01*
X013654Y009613D01*
X013575Y009613D02*
X013575Y009691D01*
X014126Y009691D01*
X014126Y009613D01*
X014048Y009613D01*
X014126Y009613D02*
X014126Y009258D01*
X014200Y009258D02*
X014200Y009613D01*
X014279Y009613D01*
X014200Y009613D02*
X014200Y009691D01*
X014751Y009691D01*
X014751Y009613D01*
X014673Y009613D01*
X014751Y009613D02*
X014751Y009258D01*
X014751Y008943D02*
X014751Y008510D01*
X014200Y008510D01*
X014200Y008943D01*
X014126Y008943D02*
X014126Y008510D01*
X013575Y008510D01*
X013575Y008943D01*
X013501Y008943D02*
X013501Y008510D01*
X012950Y008510D01*
X012950Y008943D01*
X012751Y008943D02*
X012751Y008510D01*
X012200Y008510D01*
X012200Y008943D01*
X012126Y008943D02*
X012126Y008510D01*
X011575Y008510D01*
X011575Y008943D01*
X011501Y008943D02*
X011501Y008510D01*
X010950Y008510D01*
X010950Y008943D01*
X010950Y009258D02*
X010950Y009613D01*
X011029Y009613D01*
X010950Y009613D02*
X010950Y009691D01*
X011501Y009691D01*
X011501Y009613D01*
X011423Y009613D01*
X011501Y009613D02*
X011501Y009258D01*
X011575Y009258D02*
X011575Y009613D01*
X011654Y009613D01*
X011575Y009613D02*
X011575Y009691D01*
X012126Y009691D01*
X012126Y009613D01*
X012048Y009613D01*
X012126Y009613D02*
X012126Y009258D01*
X012200Y009258D02*
X012200Y009613D01*
X012279Y009613D01*
X012200Y009613D02*
X012200Y009691D01*
X012751Y009691D01*
X012751Y009613D01*
X012673Y009613D01*
X012751Y009613D02*
X012751Y009258D01*
X012950Y009258D02*
X012950Y009613D01*
X013029Y009613D01*
X012950Y009613D02*
X012950Y009691D01*
X012751Y009770D02*
X012200Y009770D01*
X012126Y009770D02*
X011575Y009770D01*
X011501Y009770D02*
X010950Y009770D01*
X012063Y008085D02*
X011867Y007888D01*
X011867Y007790D01*
X011965Y007790D01*
X012162Y007987D01*
X012162Y008085D01*
X011867Y007790D01*
X012063Y008085D02*
X012162Y008085D01*
X011867Y006412D02*
X011867Y006313D01*
X012063Y006117D01*
X012162Y006117D01*
X011816Y006376D02*
X011816Y005825D01*
X011383Y005825D01*
X011383Y005751D02*
X011738Y005751D01*
X011738Y005673D01*
X011738Y005751D02*
X011816Y005751D01*
X011816Y005200D01*
X011738Y005200D01*
X011738Y005279D01*
X011738Y005200D02*
X011383Y005200D01*
X011068Y005200D02*
X010635Y005200D01*
X010635Y005751D01*
X011068Y005751D01*
X011068Y005825D02*
X010714Y005825D01*
X010714Y005904D01*
X010714Y005825D02*
X010635Y005825D01*
X010635Y006376D01*
X010714Y006376D01*
X010714Y006298D01*
X010714Y006376D02*
X011068Y006376D01*
X011383Y006376D02*
X011816Y006376D01*
X011895Y005751D02*
X011895Y005200D01*
X011645Y003939D02*
X011645Y003388D01*
X011566Y003388D02*
X011566Y003939D01*
X011488Y003939D01*
X011488Y003860D01*
X011488Y003939D02*
X011133Y003939D01*
X010818Y003939D02*
X010385Y003939D01*
X010385Y003388D01*
X010818Y003388D01*
X011133Y003388D02*
X011488Y003388D01*
X011488Y003466D01*
X011488Y003388D02*
X011566Y003388D01*
X010556Y005825D02*
X010556Y006376D01*
X010564Y006198D02*
X010013Y006198D01*
X010013Y006631D01*
X010013Y006946D02*
X010013Y007300D01*
X010091Y007300D01*
X010013Y007300D02*
X010013Y007379D01*
X010564Y007379D01*
X010564Y007300D01*
X010485Y007300D01*
X010564Y007300D02*
X010564Y006946D01*
X010564Y006631D02*
X010564Y006198D01*
X010564Y007458D02*
X010013Y007458D01*
X013540Y008085D02*
X013638Y008085D01*
X013835Y007888D01*
X013835Y007790D01*
X013951Y007876D02*
X014101Y007876D01*
X014176Y007951D01*
X014176Y008326D01*
X014336Y008176D02*
X014486Y008326D01*
X014486Y007876D01*
X014336Y007876D02*
X014636Y007876D01*
X013951Y007876D02*
X013876Y007951D01*
X013876Y008326D01*
X013885Y006439D02*
X013885Y005888D01*
X014318Y005888D01*
X014318Y005814D02*
X013964Y005814D01*
X013964Y005735D01*
X013964Y005814D02*
X013885Y005814D01*
X013885Y005263D01*
X013964Y005263D01*
X013964Y005341D01*
X013964Y005263D02*
X014318Y005263D01*
X014633Y005263D02*
X015066Y005263D01*
X015066Y005814D01*
X014633Y005814D01*
X014633Y005888D02*
X014988Y005888D01*
X014988Y005966D01*
X014988Y005888D02*
X015066Y005888D01*
X015066Y006439D01*
X014988Y006439D01*
X014988Y006360D01*
X014988Y006439D02*
X014633Y006439D01*
X014318Y006439D02*
X013885Y006439D01*
X013835Y006412D02*
X013835Y006313D01*
X013638Y006117D01*
X013540Y006117D01*
X013806Y005814D02*
X013806Y005263D01*
X014056Y003939D02*
X014056Y003388D01*
X014135Y003388D02*
X014135Y003939D01*
X014214Y003939D01*
X014214Y003860D01*
X014214Y003939D02*
X014568Y003939D01*
X014883Y003939D02*
X015316Y003939D01*
X015316Y003388D01*
X014883Y003388D01*
X014568Y003388D02*
X014214Y003388D01*
X014214Y003466D01*
X014214Y003388D02*
X014135Y003388D01*
X015145Y005888D02*
X015145Y006439D01*
X018825Y006631D02*
X018825Y006198D01*
X019376Y006198D01*
X019376Y006631D01*
X019376Y006946D02*
X019376Y007300D01*
X019298Y007300D01*
X019376Y007300D02*
X019376Y007379D01*
X018825Y007379D01*
X018825Y007300D01*
X018904Y007300D01*
X018825Y007300D02*
X018825Y006946D01*
X018825Y007458D02*
X019376Y007458D01*
X003957Y005676D02*
X003657Y005676D01*
X003807Y005676D02*
X003807Y006126D01*
X003657Y005976D01*
X003497Y006126D02*
X003196Y006126D01*
X003347Y006126D02*
X003347Y005676D01*
X003036Y005676D02*
X002736Y005676D01*
X002736Y006126D01*
X002576Y006126D02*
X002276Y006126D01*
X002276Y005676D01*
X002276Y005901D02*
X002426Y005901D01*
D13*
X009746Y006004D02*
X009746Y005697D01*
X009822Y005621D01*
X009976Y005621D01*
X010053Y005697D01*
X010206Y005697D02*
X010283Y005621D01*
X010436Y005621D01*
X010513Y005697D01*
X010513Y005851D01*
X010436Y005928D01*
X010360Y005928D01*
X010206Y005851D01*
X010206Y006081D01*
X010513Y006081D01*
X010053Y006004D02*
X009976Y006081D01*
X009822Y006081D01*
X009746Y006004D01*
X009822Y005456D02*
X009746Y005379D01*
X009746Y005072D01*
X009822Y004996D01*
X009976Y004996D01*
X010053Y005072D01*
X010206Y005072D02*
X010283Y004996D01*
X010436Y004996D01*
X010513Y005072D01*
X010513Y005149D01*
X010436Y005226D01*
X010206Y005226D01*
X010206Y005072D01*
X010206Y005226D02*
X010360Y005379D01*
X010513Y005456D01*
X010053Y005379D02*
X009976Y005456D01*
X009822Y005456D01*
X009996Y007621D02*
X010303Y007621D01*
X010456Y007697D02*
X010533Y007621D01*
X010686Y007621D01*
X010763Y007697D01*
X010763Y007851D01*
X010686Y007928D01*
X010610Y007928D01*
X010456Y007851D01*
X010456Y008081D01*
X010763Y008081D01*
X009996Y008081D02*
X009996Y007621D01*
X011072Y009996D02*
X011379Y009996D01*
X011456Y010072D01*
X011456Y010226D01*
X011379Y010303D01*
X011456Y010456D02*
X011456Y010763D01*
X011456Y010610D02*
X010995Y010610D01*
X011149Y010456D01*
X011072Y010303D02*
X010995Y010226D01*
X010995Y010072D01*
X011072Y009996D01*
X011620Y010072D02*
X011697Y009996D01*
X012004Y009996D01*
X012081Y010072D01*
X012081Y010226D01*
X012004Y010303D01*
X012081Y010456D02*
X011774Y010763D01*
X011697Y010763D01*
X011620Y010686D01*
X011620Y010533D01*
X011697Y010456D01*
X011697Y010303D02*
X011620Y010226D01*
X011620Y010072D01*
X012081Y010456D02*
X012081Y010763D01*
X012245Y010686D02*
X012245Y010533D01*
X012322Y010456D01*
X012476Y010610D02*
X012476Y010686D01*
X012552Y010763D01*
X012629Y010763D01*
X012706Y010686D01*
X012706Y010533D01*
X012629Y010456D01*
X012706Y010303D02*
X012706Y009996D01*
X012245Y009996D01*
X012245Y010686D02*
X012322Y010763D01*
X012399Y010763D01*
X012476Y010686D01*
X012995Y010686D02*
X013226Y010456D01*
X013226Y010763D01*
X013456Y010686D02*
X012995Y010686D01*
X013456Y010303D02*
X013456Y009996D01*
X012995Y009996D01*
X013620Y010072D02*
X013697Y009996D01*
X014004Y009996D01*
X014081Y010072D01*
X014081Y010226D01*
X014004Y010303D01*
X014004Y010456D02*
X014081Y010533D01*
X014081Y010686D01*
X014004Y010763D01*
X013927Y010763D01*
X013851Y010686D01*
X013851Y010610D01*
X013851Y010686D02*
X013774Y010763D01*
X013697Y010763D01*
X013620Y010686D01*
X013620Y010533D01*
X013697Y010456D01*
X013697Y010303D02*
X013620Y010226D01*
X013620Y010072D01*
X014245Y010072D02*
X014322Y009996D01*
X014629Y009996D01*
X014706Y010072D01*
X014706Y010226D01*
X014629Y010303D01*
X014476Y010456D02*
X014476Y010763D01*
X014706Y010686D02*
X014245Y010686D01*
X014476Y010456D01*
X014322Y010303D02*
X014245Y010226D01*
X014245Y010072D01*
X015246Y006456D02*
X015476Y006456D01*
X015553Y006379D01*
X015553Y006226D01*
X015476Y006149D01*
X015246Y006149D01*
X015246Y005996D02*
X015246Y006456D01*
X015399Y006149D02*
X015553Y005996D01*
X015706Y005996D02*
X016013Y005996D01*
X015860Y005996D02*
X015860Y006456D01*
X015706Y006303D01*
X015706Y005831D02*
X016013Y005831D01*
X016013Y005754D01*
X015706Y005447D01*
X015706Y005371D01*
X015553Y005447D02*
X015476Y005371D01*
X015322Y005371D01*
X015246Y005447D01*
X015246Y005754D01*
X015322Y005831D01*
X015476Y005831D01*
X015553Y005754D01*
X016246Y005851D02*
X016399Y005851D01*
X016246Y005621D02*
X016246Y006081D01*
X016553Y006081D01*
X016706Y006081D02*
X016706Y005621D01*
X017013Y005621D01*
X017320Y005621D02*
X017320Y006081D01*
X017473Y006081D02*
X017166Y006081D01*
X017627Y006004D02*
X017704Y006081D01*
X017857Y006081D01*
X017934Y006004D01*
X017934Y005928D01*
X017857Y005851D01*
X017934Y005774D01*
X017934Y005697D01*
X017857Y005621D01*
X017704Y005621D01*
X017627Y005697D01*
X017780Y005851D02*
X017857Y005851D01*
X018746Y005621D02*
X019053Y005621D01*
X019206Y005621D02*
X019513Y005928D01*
X019513Y006004D01*
X019436Y006081D01*
X019283Y006081D01*
X019206Y006004D01*
X018746Y006081D02*
X018746Y005621D01*
X019206Y005621D02*
X019513Y005621D01*
X019552Y007608D02*
X019552Y007839D01*
X019476Y007915D01*
X019322Y007915D01*
X019245Y007839D01*
X019245Y007608D01*
X019706Y007608D01*
X019552Y007762D02*
X019706Y007915D01*
X019706Y008069D02*
X019245Y008376D01*
X019245Y008069D02*
X019706Y008376D01*
X019782Y008529D02*
X019782Y008836D01*
X019629Y008990D02*
X019706Y009066D01*
X019706Y009220D01*
X019629Y009296D01*
X019322Y009296D01*
X019245Y009220D01*
X019245Y009066D01*
X019322Y008990D01*
X019629Y008990D01*
X019629Y009450D02*
X019245Y009450D01*
X019245Y009757D02*
X019629Y009757D01*
X019706Y009680D01*
X019706Y009527D01*
X019629Y009450D01*
X019245Y009910D02*
X019245Y010217D01*
X019245Y010064D02*
X019706Y010064D01*
X019706Y013365D02*
X019399Y013365D01*
X019245Y013518D01*
X019399Y013672D01*
X019706Y013672D01*
X019706Y013825D02*
X019245Y013825D01*
X019706Y014132D01*
X019245Y014132D01*
X019245Y014285D02*
X019245Y014592D01*
X019245Y014439D02*
X019706Y014439D01*
X019476Y013672D02*
X019476Y013365D01*
X018601Y015343D02*
X018141Y015343D01*
X018295Y015803D02*
X018141Y015957D01*
X018601Y015957D01*
X018601Y016110D02*
X018601Y015803D01*
X018601Y015650D02*
X018601Y015343D01*
X017397Y020621D02*
X017243Y020621D01*
X017166Y020697D01*
X017166Y020774D01*
X017243Y020851D01*
X017397Y020851D01*
X017473Y020774D01*
X017473Y020697D01*
X017397Y020621D01*
X017397Y020851D02*
X017473Y020928D01*
X017473Y021004D01*
X017397Y021081D01*
X017243Y021081D01*
X017166Y021004D01*
X017166Y020928D01*
X017243Y020851D01*
X017013Y020621D02*
X016706Y020621D01*
X016860Y020621D02*
X016860Y021081D01*
X016706Y020928D01*
X016553Y021004D02*
X016476Y021081D01*
X016322Y021081D01*
X016246Y021004D01*
X016246Y020697D01*
X016322Y020621D01*
X016476Y020621D01*
X016553Y020697D01*
X016476Y021371D02*
X016322Y021371D01*
X016246Y021447D01*
X016246Y021754D01*
X016322Y021831D01*
X016476Y021831D01*
X016553Y021754D01*
X016706Y021678D02*
X016860Y021831D01*
X016860Y021371D01*
X017013Y021371D02*
X016706Y021371D01*
X016553Y021447D02*
X016476Y021371D01*
X017166Y021371D02*
X017166Y021447D01*
X017473Y021754D01*
X017473Y021831D01*
X017166Y021831D01*
X019120Y021876D02*
X019581Y021876D01*
X019581Y022183D02*
X019120Y022490D01*
X019120Y022183D02*
X019581Y022490D01*
X019657Y022643D02*
X019657Y022950D01*
X019581Y023103D02*
X019581Y023257D01*
X019581Y023180D02*
X019120Y023180D01*
X019120Y023103D02*
X019120Y023257D01*
X019120Y023410D02*
X019581Y023717D01*
X019120Y023717D01*
X019120Y023410D02*
X019581Y023410D01*
X019120Y022029D02*
X019120Y021722D01*
X017936Y024496D02*
X017783Y024496D01*
X017706Y024572D01*
X017553Y024572D02*
X017476Y024496D01*
X017322Y024496D01*
X017246Y024572D01*
X017246Y024879D01*
X017322Y024956D01*
X017476Y024956D01*
X017553Y024879D01*
X017706Y024879D02*
X017706Y024803D01*
X017783Y024726D01*
X018013Y024726D01*
X018013Y024879D02*
X017936Y024956D01*
X017783Y024956D01*
X017706Y024879D01*
X018013Y024879D02*
X018013Y024572D01*
X017936Y024496D01*
X015598Y026447D02*
X015522Y026371D01*
X015368Y026371D01*
X015291Y026447D01*
X015138Y026371D02*
X014831Y026371D01*
X014985Y026371D02*
X014985Y026831D01*
X014831Y026678D01*
X014678Y026754D02*
X014601Y026831D01*
X014447Y026831D01*
X014371Y026754D01*
X014371Y026447D01*
X014447Y026371D01*
X014601Y026371D01*
X014678Y026447D01*
X014601Y027121D02*
X014447Y027121D01*
X014371Y027197D01*
X014371Y027504D01*
X014447Y027581D01*
X014601Y027581D01*
X014678Y027504D01*
X014831Y027428D02*
X014985Y027581D01*
X014985Y027121D01*
X015138Y027121D02*
X014831Y027121D01*
X014678Y027197D02*
X014601Y027121D01*
X015291Y027351D02*
X015598Y027351D01*
X015522Y027121D02*
X015522Y027581D01*
X015291Y027351D01*
X015368Y027871D02*
X015291Y027947D01*
X015291Y028101D01*
X015522Y028101D01*
X015598Y028024D01*
X015598Y027947D01*
X015522Y027871D01*
X015368Y027871D01*
X015138Y027871D02*
X014831Y027871D01*
X014985Y027871D02*
X014985Y028331D01*
X014831Y028178D01*
X014678Y028254D02*
X014601Y028331D01*
X014447Y028331D01*
X014371Y028254D01*
X014371Y027947D01*
X014447Y027871D01*
X014601Y027871D01*
X014678Y027947D01*
X015291Y028101D02*
X015445Y028254D01*
X015598Y028331D01*
X015522Y026831D02*
X015598Y026754D01*
X015598Y026678D01*
X015522Y026601D01*
X015598Y026524D01*
X015598Y026447D01*
X015522Y026601D02*
X015445Y026601D01*
X015291Y026754D02*
X015368Y026831D01*
X015522Y026831D01*
X012831Y022888D02*
X012831Y022581D01*
X012524Y022888D01*
X012447Y022888D01*
X012370Y022811D01*
X012370Y022658D01*
X012447Y022581D01*
X012370Y022428D02*
X012754Y022428D01*
X012831Y022351D01*
X012831Y022197D01*
X012754Y022121D01*
X012370Y022121D01*
X012229Y021810D02*
X012076Y021657D01*
X012229Y021810D02*
X012229Y021350D01*
X012076Y021350D02*
X012383Y021350D01*
X012306Y021060D02*
X012153Y021060D01*
X012076Y020984D01*
X012306Y021060D02*
X012383Y020984D01*
X012383Y020907D01*
X012076Y020600D01*
X012383Y020600D01*
X012348Y020331D02*
X012041Y020331D01*
X012041Y020101D01*
X012195Y020178D01*
X012272Y020178D01*
X012348Y020101D01*
X012348Y019947D01*
X012272Y019871D01*
X012118Y019871D01*
X012041Y019947D01*
X011888Y019871D02*
X011581Y019871D01*
X011735Y019871D02*
X011735Y020331D01*
X011581Y020178D01*
X011428Y020254D02*
X011351Y020331D01*
X011197Y020331D01*
X011121Y020254D01*
X011121Y019947D01*
X011197Y019871D01*
X011351Y019871D01*
X011428Y019947D01*
X011385Y020600D02*
X011462Y020677D01*
X011385Y020600D02*
X011232Y020600D01*
X011155Y020677D01*
X011155Y020984D01*
X011232Y021060D01*
X011385Y021060D01*
X011462Y020984D01*
X011616Y020907D02*
X011769Y021060D01*
X011769Y020600D01*
X011616Y020600D02*
X011922Y020600D01*
X011922Y021350D02*
X011616Y021350D01*
X011769Y021350D02*
X011769Y021810D01*
X011616Y021657D01*
X011462Y021734D02*
X011385Y021810D01*
X011232Y021810D01*
X011155Y021734D01*
X011155Y021427D01*
X011232Y021350D01*
X011385Y021350D01*
X011462Y021427D01*
X008413Y028290D02*
X008259Y028290D01*
X008183Y028367D01*
X008029Y028290D02*
X007876Y028444D01*
X007952Y028444D02*
X007722Y028444D01*
X007722Y028290D02*
X007722Y028750D01*
X007952Y028750D01*
X008029Y028674D01*
X008029Y028520D01*
X007952Y028444D01*
X008183Y028674D02*
X008259Y028750D01*
X008413Y028750D01*
X008489Y028674D01*
X008489Y028597D01*
X008413Y028520D01*
X008489Y028444D01*
X008489Y028367D01*
X008413Y028290D01*
X008413Y028520D02*
X008336Y028520D01*
X008183Y030290D02*
X008489Y030597D01*
X008489Y030674D01*
X008413Y030750D01*
X008259Y030750D01*
X008183Y030674D01*
X008029Y030674D02*
X008029Y030520D01*
X007952Y030444D01*
X007722Y030444D01*
X007876Y030444D02*
X008029Y030290D01*
X008183Y030290D02*
X008489Y030290D01*
X008029Y030674D02*
X007952Y030750D01*
X007722Y030750D01*
X007722Y030290D01*
X002888Y030101D02*
X002581Y030101D01*
X002811Y030331D01*
X002811Y029871D01*
X002428Y029871D02*
X002274Y030024D01*
X002351Y030024D02*
X002121Y030024D01*
X002121Y029871D02*
X002121Y030331D01*
X002351Y030331D01*
X002428Y030254D01*
X002428Y030101D01*
X002351Y030024D01*
X010447Y003206D02*
X010371Y003129D01*
X010371Y002822D01*
X010447Y002746D01*
X010601Y002746D01*
X010678Y002822D01*
X010831Y002746D02*
X011138Y002746D01*
X010985Y002746D02*
X010985Y003206D01*
X010831Y003053D01*
X010678Y003129D02*
X010601Y003206D01*
X010447Y003206D01*
X011291Y003129D02*
X011291Y002822D01*
X011598Y003129D01*
X011598Y002822D01*
X011522Y002746D01*
X011368Y002746D01*
X011291Y002822D01*
X011291Y003129D02*
X011368Y003206D01*
X011522Y003206D01*
X011598Y003129D01*
X011996Y001956D02*
X012303Y001956D01*
X012456Y001956D02*
X012456Y001496D01*
X012763Y001496D01*
X013070Y001496D02*
X013070Y001956D01*
X013223Y001956D02*
X012916Y001956D01*
X013377Y001879D02*
X013454Y001956D01*
X013607Y001956D01*
X013684Y001879D01*
X013684Y001803D01*
X013377Y001496D01*
X013684Y001496D01*
X014357Y002788D02*
X014510Y002788D01*
X014587Y002864D01*
X014741Y002864D02*
X014741Y002941D01*
X014817Y003018D01*
X014971Y003018D01*
X015047Y002941D01*
X015047Y002864D01*
X014971Y002788D01*
X014817Y002788D01*
X014741Y002864D01*
X014817Y003018D02*
X014741Y003095D01*
X014741Y003171D01*
X014817Y003248D01*
X014971Y003248D01*
X015047Y003171D01*
X015047Y003095D01*
X014971Y003018D01*
X014587Y003171D02*
X014510Y003248D01*
X014357Y003248D01*
X014280Y003171D01*
X014280Y002864D01*
X014357Y002788D01*
X012149Y001726D02*
X011996Y001726D01*
X011996Y001496D02*
X011996Y001956D01*
D14*
X011158Y028000D02*
X011034Y028000D01*
X010972Y028061D01*
X011219Y028308D01*
X011219Y028061D01*
X011158Y028000D01*
X010972Y028061D02*
X010972Y028308D01*
X011034Y028370D01*
X011158Y028370D01*
X011219Y028308D01*
X010851Y028308D02*
X010789Y028370D01*
X010666Y028370D01*
X010604Y028308D01*
X010483Y028308D02*
X010421Y028370D01*
X010298Y028370D01*
X010236Y028308D01*
X010236Y028061D01*
X010298Y028000D01*
X010421Y028000D01*
X010483Y028061D01*
X010604Y028000D02*
X010851Y028246D01*
X010851Y028308D01*
X010851Y028000D02*
X010604Y028000D01*
X010604Y030000D02*
X010851Y030000D01*
X010728Y030000D02*
X010728Y030370D01*
X010604Y030246D01*
X010483Y030308D02*
X010421Y030370D01*
X010298Y030370D01*
X010236Y030308D01*
X010236Y030061D01*
X010298Y030000D01*
X010421Y030000D01*
X010483Y030061D01*
X010972Y030061D02*
X011034Y030000D01*
X011158Y030000D01*
X011219Y030061D01*
X011219Y030308D01*
X011158Y030370D01*
X011034Y030370D01*
X010972Y030308D01*
X010972Y030246D01*
X011034Y030185D01*
X011219Y030185D01*
X001849Y029866D02*
X001602Y029866D01*
X001481Y029866D02*
X001234Y029866D01*
X001481Y030113D01*
X001481Y030174D01*
X001419Y030236D01*
X001296Y030236D01*
X001234Y030174D01*
X001113Y030174D02*
X001051Y030236D01*
X000927Y030236D01*
X000866Y030174D01*
X000866Y029927D01*
X000927Y029866D01*
X001051Y029866D01*
X001113Y029927D01*
X001602Y030113D02*
X001726Y030236D01*
X001726Y029866D01*
M02*
