G75*
G70*
%OFA0B0*%
%FSLAX24Y24*%
%IPPOS*%
%LPD*%
%AMOC8*
5,1,8,0,0,1.08239X$1,22.5*
%
%ADD10C,0.0000*%
%ADD11C,0.0480*%
%ADD12R,0.0840X0.0840*%
%ADD13R,0.1040X0.0840*%
%ADD14R,0.0840X0.1040*%
%ADD15R,0.1840X0.1040*%
%ADD16R,0.0355X0.0355*%
%ADD17R,0.0512X0.0355*%
%ADD18R,0.0867X0.0355*%
%ADD19R,0.1221X0.1221*%
%ADD20R,0.0631X0.0188*%
%ADD21R,0.0188X0.0631*%
%ADD22R,0.0473X0.0473*%
%ADD23R,0.0394X0.0473*%
%ADD24C,0.0079*%
%ADD25R,0.0434X0.0512*%
%ADD26R,0.0540X0.1300*%
%ADD27R,0.0670X0.0985*%
%ADD28R,0.0985X0.0670*%
%ADD29R,0.0670X0.0591*%
%ADD30R,0.0591X0.0670*%
D10*
X000101Y000101D02*
X000101Y031101D01*
X022101Y031101D01*
X022093Y000101D01*
X000101Y000101D01*
X022101Y004601D02*
X022101Y009601D01*
X022101Y013101D02*
X022101Y018101D01*
X022101Y021601D02*
X022101Y026601D01*
D11*
X021351Y026851D02*
X021351Y030351D01*
X012476Y030351D01*
X011726Y025601D02*
X001601Y025601D01*
X001601Y000851D01*
X021351Y000851D01*
X021351Y004351D01*
X021351Y009851D02*
X021351Y012476D01*
X009351Y012476D01*
X009476Y018726D02*
X021351Y018726D01*
X021351Y018351D01*
X021351Y018726D02*
X021351Y021351D01*
X021351Y012976D02*
X021351Y012476D01*
D12*
X008501Y015601D03*
D13*
X008401Y007051D03*
X006201Y006901D03*
X003701Y006901D03*
X003701Y024301D03*
X006201Y024301D03*
X008401Y024151D03*
D14*
X008451Y021651D03*
X008451Y019851D03*
X008451Y018151D03*
X008451Y013051D03*
X008451Y011351D03*
X008451Y009551D03*
X002651Y008301D03*
X002651Y012801D03*
X002651Y015601D03*
X002651Y018401D03*
X002651Y022901D03*
D15*
X021001Y022501D03*
X021001Y024101D03*
X021001Y025701D03*
X021001Y017201D03*
X021001Y015601D03*
X021001Y014001D03*
X021001Y008701D03*
X021001Y007101D03*
X021001Y005501D03*
D16*
X019101Y006473D03*
X019101Y007103D03*
X015041Y003663D03*
X014411Y003663D03*
X014161Y005538D03*
X014161Y006163D03*
X014791Y006163D03*
X014791Y005538D03*
X014476Y008786D03*
X013851Y008786D03*
X013851Y009416D03*
X014476Y009416D03*
X013226Y009416D03*
X013226Y008786D03*
X012476Y008786D03*
X012476Y009416D03*
X011851Y009416D03*
X011226Y009416D03*
X011226Y008786D03*
X011851Y008786D03*
X010288Y007103D03*
X010288Y006473D03*
X010911Y006101D03*
X010911Y005476D03*
X011541Y005476D03*
X011541Y006101D03*
X011291Y003663D03*
X010661Y003663D03*
X019101Y015598D03*
X019101Y016228D03*
X015666Y020851D03*
X015036Y020851D03*
X015036Y021601D03*
X015666Y021601D03*
X013666Y021601D03*
X013036Y021601D03*
X013036Y020851D03*
X013666Y020851D03*
X017536Y024101D03*
X018166Y024101D03*
X013666Y026601D03*
X013036Y026601D03*
X013036Y027351D03*
X013666Y027351D03*
D17*
X017691Y007573D03*
X017691Y007101D03*
X017691Y006628D03*
X016510Y006628D03*
X016510Y007101D03*
X013441Y003323D03*
X013441Y002851D03*
X013441Y002378D03*
X012260Y002378D03*
X012260Y002851D03*
D18*
X012437Y003323D03*
X016687Y007573D03*
D19*
X012851Y007101D03*
D20*
X013874Y007101D03*
X013874Y007357D03*
X013874Y007613D03*
X013874Y006845D03*
X013874Y006589D03*
X011827Y006589D03*
X011827Y006845D03*
X011827Y007101D03*
X011827Y007357D03*
X011827Y007613D03*
D21*
X012339Y008124D03*
X012595Y008124D03*
X012851Y008124D03*
X013107Y008124D03*
X013363Y008124D03*
X013363Y006077D03*
X013107Y006077D03*
X012851Y006077D03*
X012595Y006077D03*
X012339Y006077D03*
D22*
X013150Y024101D03*
X015552Y024101D03*
D23*
X014922Y025892D03*
X013780Y025892D03*
X013780Y022309D03*
X014922Y022309D03*
D24*
X015256Y022281D02*
X015602Y022281D01*
X015650Y022329D02*
X015532Y022211D01*
X015256Y022211D01*
X015256Y022683D01*
X014587Y022683D01*
X014587Y022211D01*
X014115Y022211D01*
X014115Y022683D01*
X013445Y022683D01*
X013445Y022211D01*
X013052Y022211D01*
X013052Y023727D01*
X013524Y023727D01*
X013524Y024475D01*
X013052Y024475D01*
X013052Y025991D01*
X013445Y025991D01*
X013445Y025518D01*
X014115Y025518D01*
X014115Y025991D01*
X014587Y025991D01*
X014587Y025518D01*
X015256Y025518D01*
X015256Y025991D01*
X015650Y025991D01*
X015650Y024475D01*
X015178Y024475D01*
X015178Y023727D01*
X015650Y023727D01*
X015650Y022329D01*
X015650Y022358D02*
X015256Y022358D01*
X015256Y022436D02*
X015650Y022436D01*
X015650Y022513D02*
X015256Y022513D01*
X015256Y022590D02*
X015650Y022590D01*
X015650Y022668D02*
X015256Y022668D01*
X015650Y022745D02*
X013052Y022745D01*
X013052Y022822D02*
X015650Y022822D01*
X015650Y022899D02*
X013052Y022899D01*
X013052Y022977D02*
X015650Y022977D01*
X015650Y023054D02*
X013052Y023054D01*
X013052Y023131D02*
X015650Y023131D01*
X015650Y023209D02*
X013052Y023209D01*
X013052Y023286D02*
X015650Y023286D01*
X015650Y023363D02*
X013052Y023363D01*
X013052Y023440D02*
X015650Y023440D01*
X015650Y023518D02*
X013052Y023518D01*
X013052Y023595D02*
X015650Y023595D01*
X015650Y023672D02*
X013052Y023672D01*
X013524Y023750D02*
X015178Y023750D01*
X015178Y023827D02*
X013524Y023827D01*
X013524Y023904D02*
X015178Y023904D01*
X015178Y023981D02*
X013524Y023981D01*
X013524Y024059D02*
X015178Y024059D01*
X015178Y024136D02*
X013524Y024136D01*
X013524Y024213D02*
X015178Y024213D01*
X015178Y024291D02*
X013524Y024291D01*
X013524Y024368D02*
X015178Y024368D01*
X015178Y024445D02*
X013524Y024445D01*
X013052Y024522D02*
X015650Y024522D01*
X015650Y024600D02*
X013052Y024600D01*
X013052Y024677D02*
X015650Y024677D01*
X015650Y024754D02*
X013052Y024754D01*
X013052Y024831D02*
X015650Y024831D01*
X015650Y024909D02*
X013052Y024909D01*
X013052Y024986D02*
X015650Y024986D01*
X015650Y025063D02*
X013052Y025063D01*
X013052Y025141D02*
X015650Y025141D01*
X015650Y025218D02*
X013052Y025218D01*
X013052Y025295D02*
X015650Y025295D01*
X015650Y025372D02*
X013052Y025372D01*
X013052Y025450D02*
X015650Y025450D01*
X015650Y025527D02*
X015256Y025527D01*
X015256Y025604D02*
X015650Y025604D01*
X015650Y025682D02*
X015256Y025682D01*
X015256Y025759D02*
X015650Y025759D01*
X015650Y025836D02*
X015256Y025836D01*
X015256Y025913D02*
X015650Y025913D01*
X014587Y025913D02*
X014115Y025913D01*
X014115Y025836D02*
X014587Y025836D01*
X014587Y025759D02*
X014115Y025759D01*
X014115Y025682D02*
X014587Y025682D01*
X014587Y025604D02*
X014115Y025604D01*
X014115Y025527D02*
X014587Y025527D01*
X013445Y025527D02*
X013052Y025527D01*
X013052Y025604D02*
X013445Y025604D01*
X013445Y025682D02*
X013052Y025682D01*
X013052Y025759D02*
X013445Y025759D01*
X013445Y025836D02*
X013052Y025836D01*
X013052Y025913D02*
X013445Y025913D01*
X013445Y022668D02*
X013052Y022668D01*
X013052Y022590D02*
X013445Y022590D01*
X013445Y022513D02*
X013052Y022513D01*
X013052Y022436D02*
X013445Y022436D01*
X013445Y022358D02*
X013052Y022358D01*
X013052Y022281D02*
X013445Y022281D01*
X014115Y022281D02*
X014587Y022281D01*
X014587Y022358D02*
X014115Y022358D01*
X014115Y022436D02*
X014587Y022436D01*
X014587Y022513D02*
X014115Y022513D01*
X014115Y022590D02*
X014587Y022590D01*
X014587Y022668D02*
X014115Y022668D01*
D25*
X013744Y020101D03*
X012957Y020101D03*
X012957Y028101D03*
X013744Y028101D03*
D26*
X006851Y027617D03*
X005851Y027617D03*
X004851Y027617D03*
X003851Y027617D03*
X003851Y029585D03*
X004851Y029585D03*
X005851Y029585D03*
X006851Y029585D03*
D27*
X008135Y029601D03*
X009316Y029601D03*
X009316Y027601D03*
X008135Y027601D03*
D28*
X002476Y028010D03*
X002476Y029191D03*
D29*
X010260Y029601D03*
X011441Y029601D03*
X011441Y027601D03*
X010260Y027601D03*
D30*
X001351Y028010D03*
X001351Y029191D03*
M02*
