%
M48
M72
T01C0.0120
T02C0.0180
T03C0.0240
%
T01
X12375Y7375
X12750Y7375
X13125Y7375
X13125Y7000
X13125Y6625
X12750Y6625
X12750Y7000
X12375Y7000
X12375Y6625
X11125Y8375
X11750Y8375
X13750Y8375
X14375Y8375
X12750Y4750
X12500Y4438
X12188Y4125
X11875Y3813
X13000Y4438
X13312Y4125
X13625Y3813
X13188Y3750
X12313Y3750
X12750Y3750
X12563Y21500
X12563Y20750
X12438Y20188
X12438Y19813
X15938Y21500
X15938Y20750
X12438Y27813
X12563Y27250
X12563Y26500
X10438Y5375
X10688Y6563
X11125Y6563
X15063Y6063
X15063Y5438
X19000Y6000
X19000Y16500
X12438Y28188
X11875Y29750
X11875Y29250
X11875Y27750
X11875Y27250
X10188Y3563
X15313Y3563
X14000Y24250
X13625Y24250
X14500Y24250
X14875Y24250
X14875Y23750
X14500Y23750
X14000Y23750
X13625Y23750
X13625Y23250
X14000Y23250
X14500Y23250
X14875Y23250
X14000Y24750
X13625Y24750
X14500Y24750
X14875Y24750
X14875Y25250
X14500Y25250
X14000Y25250
X13625Y25250
X13625Y22750
X14000Y22750
X14500Y22750
X14875Y22750
X15250Y23250
X15250Y22750
X13250Y23250
X13250Y22750
X13250Y24750
X13250Y25250
X15250Y25250
X15250Y24750
X14250Y25750
X13125Y25750
X15375Y25750
X14250Y22250
X13125Y22250
X15375Y22250
X9125Y7625
X9500Y7625
X9875Y7625
X10250Y7625
X10625Y7625
X11000Y7625
X9125Y6375
X9500Y6375
X14375Y7625
X14750Y7625
X15125Y7625
X15500Y7625
X15750Y8000
X16125Y8125
X16500Y8125
X16875Y8125
X17250Y8125
X17625Y8125
X15500Y6375
X15750Y6000
X16125Y5875
X16500Y5875
X16875Y5875
X17250Y5875
X17625Y5875
X18000Y5875
X18375Y6000
X18000Y8125
X18375Y8000
X18625Y7625
X19000Y7625
X19375Y7625
X19750Y7625
X19750Y6375
X9125Y16125
X9500Y16125
X9875Y16125
X10250Y16125
X10625Y16125
X11000Y16125
X11375Y16125
X11750Y16125
X12125Y16125
X12500Y16125
X12875Y16125
X13250Y16125
X13625Y16125
X9125Y14875
X9500Y14875
X9875Y14875
X10250Y14875
X10625Y14875
X11000Y14875
X11375Y14875
X11750Y14875
X12125Y14875
X12500Y14875
X12875Y14875
X13250Y14875
X13625Y14875
X14000Y14875
X14375Y14875
X14750Y14875
X15125Y14875
X15500Y14875
X15875Y14875
X16250Y14875
X16625Y14875
X17000Y14875
X17375Y14875
X17750Y14875
X18125Y14875
X18500Y14875
X18875Y14875
X19250Y14875
X19625Y14875
X14000Y16125
X14375Y16125
X14750Y16125
X15125Y16125
X15500Y16125
X15875Y16125
X16250Y16125
X16625Y16125
X17000Y16125
X17375Y16125
X17750Y16125
X18125Y16125
X18500Y16125
X19625Y16125
X9000Y24625
X9375Y24625
X9750Y24625
X10125Y24625
X10500Y24625
X10875Y24625
X11250Y24625
X11625Y24625
X12000Y24625
X9000Y23375
X9375Y23375
X9750Y23375
X10125Y23375
X10500Y23375
X10875Y23375
X11250Y23375
X11625Y23375
X12000Y23375
X16375Y24625
X16750Y24625
X17125Y24625
X17500Y24625
X17875Y24625
X18250Y24625
X18625Y24625
X19000Y24625
X19375Y24625
X19750Y24625
X19750Y23375
X19375Y23375
X19000Y23375
X18625Y23375
X18250Y23375
X17875Y23375
X17500Y23375
X17125Y23375
X16750Y23375
X16375Y23375
X11500Y5000
X11250Y4750
X11000Y4500
X10750Y4250
X10625Y3000
X10875Y2625
X11250Y2250
X11625Y1875
X12000Y1625
X12500Y1625
X13000Y1625
X13500Y1625
X14000Y1875
X14250Y2375
X14625Y2750
X14125Y4875
X14500Y4625
X14750Y4250
X14500Y20000
X15375Y20000
T02
X15875Y22750
X15875Y25125
X12625Y22750
X12625Y25125
T03
X21250Y29500
X21250Y28750
X21250Y28000
X21250Y27250
X21250Y750
X21250Y1500
X21250Y2250
X21250Y3000
X21250Y3750
X20500Y750
X19750Y750
X19000Y750
X18250Y750
X17500Y750
X16750Y750
X16000Y750
X15250Y750
X14500Y750
X13750Y750
X13000Y750
X12250Y750
X11500Y750
X10750Y750
X10000Y750
X9250Y750
X8500Y750
X7750Y750
X7000Y750
X6250Y750
X5500Y750
X4750Y750
X1500Y750
X2250Y750
X3000Y750
X3875Y750
X1500Y1500
X1500Y2250
X1500Y3000
X1500Y3750
X1500Y4500
X1500Y5250
X1500Y6000
X1500Y6750
X1500Y7500
X1500Y8250
X21250Y21250
X21250Y20500
X21250Y19750
X21250Y19000
X21250Y18250
X21250Y12750
X21250Y12000
X21250Y11250
X21250Y10500
X21250Y9750
X20500Y12375
X19750Y12375
X19000Y12375
X18250Y12375
X17500Y12375
X16750Y12375
X16000Y12375
X15250Y12375
X14500Y12375
X13750Y12375
X9250Y12375
X13000Y12375
X12250Y12375
X11500Y12375
X10750Y12375
X10000Y12375
X20625Y18625
X19875Y18625
X19125Y18625
X18375Y18625
X17625Y18625
X16875Y18625
X16125Y18625
X15375Y18625
X14625Y18625
X13875Y18625
X9375Y18625
X13125Y18625
X12375Y18625
X11625Y18625
X10875Y18625
X10125Y18625
X12750Y30250
X13500Y30250
X14250Y30250
X15125Y30250
X16000Y30250
X21250Y30250
X20500Y30250
X19750Y30250
X19000Y30250
X18250Y30250
X17500Y30250
X16750Y30250
X2125Y25500
X2750Y25500
X3375Y25500
X4000Y25500
X4625Y25500
X5250Y25500
X5875Y25500
X6500Y25500
X7125Y25500
X7750Y25500
X8375Y25500
X9000Y25500
X9625Y25500
X10250Y25500
X10875Y25500
X1500Y9000
X1500Y9750
X1500Y11250
X1500Y12000
X1500Y12750
X1500Y13500
X1500Y14250
X1500Y15000
X1500Y15750
X1500Y16500
X1500Y17250
X1500Y18000
X1500Y18750
X1500Y19500
X1500Y20250
X1500Y21000
X1500Y21750
X1500Y22500
X1500Y23250
X1500Y24000
X1500Y24750
X1500Y25500
X11500Y25500
M30
