G75*
G70*
%OFA0B0*%
%FSLAX24Y24*%
%IPPOS*%
%LPD*%
%AMOC8*
5,1,8,0,0,1.08239X$1,22.5*
%
%ADD10C,0.0000*%
%ADD11R,0.0800X0.0800*%
%ADD12R,0.1000X0.0800*%
%ADD13R,0.0800X0.1000*%
%ADD14R,0.1800X0.1000*%
%ADD15R,0.0315X0.0315*%
%ADD16R,0.0472X0.0315*%
%ADD17R,0.0827X0.0315*%
%ADD18R,0.1181X0.1181*%
%ADD19R,0.0591X0.0148*%
%ADD20R,0.0148X0.0591*%
%ADD21R,0.0433X0.0433*%
%ADD22R,0.0354X0.0433*%
%ADD23R,0.0394X0.0472*%
%ADD24R,0.0500X0.1260*%
%ADD25R,0.0630X0.0945*%
%ADD26R,0.0945X0.0630*%
%ADD27R,0.0630X0.0551*%
%ADD28R,0.0551X0.0630*%
%ADD29C,0.0240*%
%ADD30C,0.0320*%
%ADD31C,0.0240*%
%ADD32C,0.0160*%
%ADD33C,0.0360*%
%ADD34C,0.0120*%
%ADD35C,0.0080*%
%ADD36C,0.0480*%
%ADD37C,0.0300*%
D10*
X000101Y000101D02*
X000101Y031101D01*
X022101Y031101D01*
X022093Y000101D01*
X000101Y000101D01*
X022101Y004601D02*
X022101Y009601D01*
X022101Y013101D02*
X022101Y018101D01*
X022101Y021601D02*
X022101Y026601D01*
D11*
X008501Y015601D03*
D12*
X008401Y007051D03*
X006201Y006901D03*
X003701Y006901D03*
X003701Y024301D03*
X006201Y024301D03*
X008401Y024151D03*
D13*
X008451Y021651D03*
X008451Y019851D03*
X008451Y018151D03*
X008451Y013051D03*
X008451Y011351D03*
X008451Y009551D03*
X002651Y008301D03*
X002651Y012801D03*
X002651Y015601D03*
X002651Y018401D03*
X002651Y022901D03*
D14*
X021001Y022501D03*
X021001Y024101D03*
X021001Y025701D03*
X021001Y017201D03*
X021001Y015601D03*
X021001Y014001D03*
X021001Y008701D03*
X021001Y007101D03*
X021001Y005501D03*
D15*
X019101Y006473D03*
X019101Y007103D03*
X015041Y003663D03*
X014411Y003663D03*
X014161Y005538D03*
X014161Y006163D03*
X014791Y006163D03*
X014791Y005538D03*
X014476Y008786D03*
X013851Y008786D03*
X013851Y009416D03*
X014476Y009416D03*
X013226Y009416D03*
X013226Y008786D03*
X012476Y008786D03*
X012476Y009416D03*
X011851Y009416D03*
X011226Y009416D03*
X011226Y008786D03*
X011851Y008786D03*
X010288Y007103D03*
X010288Y006473D03*
X010911Y006101D03*
X010911Y005476D03*
X011541Y005476D03*
X011541Y006101D03*
X011291Y003663D03*
X010661Y003663D03*
X019101Y015598D03*
X019101Y016228D03*
X015666Y020851D03*
X015036Y020851D03*
X015036Y021601D03*
X015666Y021601D03*
X013666Y021601D03*
X013036Y021601D03*
X013036Y020851D03*
X013666Y020851D03*
X017536Y024101D03*
X018166Y024101D03*
X013666Y026601D03*
X013036Y026601D03*
X013036Y027351D03*
X013666Y027351D03*
D16*
X017691Y007573D03*
X017691Y007101D03*
X017691Y006628D03*
X016510Y006628D03*
X016510Y007101D03*
X013441Y003323D03*
X013441Y002851D03*
X013441Y002378D03*
X012260Y002378D03*
X012260Y002851D03*
D17*
X012437Y003323D03*
X016687Y007573D03*
D18*
X012851Y007101D03*
D19*
X013874Y007101D03*
X013874Y007357D03*
X013874Y007613D03*
X013874Y006845D03*
X013874Y006589D03*
X011827Y006589D03*
X011827Y006845D03*
X011827Y007101D03*
X011827Y007357D03*
X011827Y007613D03*
D20*
X012339Y008124D03*
X012595Y008124D03*
X012851Y008124D03*
X013107Y008124D03*
X013363Y008124D03*
X013363Y006077D03*
X013107Y006077D03*
X012851Y006077D03*
X012595Y006077D03*
X012339Y006077D03*
D21*
X013150Y024101D03*
X015552Y024101D03*
D22*
X014922Y025892D03*
X013780Y025892D03*
X013780Y022309D03*
X014922Y022309D03*
D23*
X013744Y020101D03*
X012957Y020101D03*
X012957Y028101D03*
X013744Y028101D03*
D24*
X006851Y027617D03*
X005851Y027617D03*
X004851Y027617D03*
X003851Y027617D03*
X003851Y029585D03*
X004851Y029585D03*
X005851Y029585D03*
X006851Y029585D03*
D25*
X008135Y029601D03*
X009316Y029601D03*
X009316Y027601D03*
X008135Y027601D03*
D26*
X002476Y028010D03*
X002476Y029191D03*
D27*
X010260Y029601D03*
X011441Y029601D03*
X011441Y027601D03*
X010260Y027601D03*
D28*
X001351Y028010D03*
X001351Y029191D03*
D29*
X009101Y024726D03*
X009476Y024726D03*
X009851Y024726D03*
X010226Y024726D03*
X010601Y024726D03*
X010976Y024726D03*
X011351Y024726D03*
X011726Y024726D03*
X012101Y024726D03*
X012101Y023476D03*
X011726Y023476D03*
X011351Y023476D03*
X010976Y023476D03*
X010601Y023476D03*
X010226Y023476D03*
X009851Y023476D03*
X009476Y023476D03*
X009101Y023476D03*
X011976Y027351D03*
X011976Y027851D03*
X012538Y027913D03*
X012538Y028288D03*
X012663Y027351D03*
X012663Y026601D03*
X013226Y025851D03*
X013351Y025351D03*
X013726Y025351D03*
X014101Y025351D03*
X014351Y025851D03*
X014601Y025351D03*
X014976Y025351D03*
X015351Y025351D03*
X015476Y025851D03*
X015351Y024851D03*
X014976Y024851D03*
X014601Y024851D03*
X014601Y024351D03*
X014976Y024351D03*
X014976Y023851D03*
X014601Y023851D03*
X014601Y023351D03*
X014976Y023351D03*
X014976Y022851D03*
X014601Y022851D03*
X014101Y022851D03*
X014101Y023351D03*
X013726Y023351D03*
X013351Y023351D03*
X013351Y022851D03*
X013726Y022851D03*
X013226Y022351D03*
X012663Y021601D03*
X012663Y020851D03*
X012538Y020288D03*
X012538Y019913D03*
X014601Y020101D03*
X015476Y020101D03*
X016038Y020851D03*
X016038Y021601D03*
X015476Y022351D03*
X015351Y022851D03*
X015351Y023351D03*
X016476Y023476D03*
X016851Y023476D03*
X017226Y023476D03*
X017601Y023476D03*
X017976Y023476D03*
X018351Y023476D03*
X018726Y023476D03*
X019101Y023476D03*
X019476Y023476D03*
X019851Y023476D03*
X019851Y024726D03*
X019476Y024726D03*
X019101Y024726D03*
X018726Y024726D03*
X018351Y024726D03*
X017976Y024726D03*
X017601Y024726D03*
X017226Y024726D03*
X016851Y024726D03*
X016476Y024726D03*
X014351Y022351D03*
X014101Y023851D03*
X014101Y024351D03*
X013726Y024351D03*
X013726Y023851D03*
X013726Y024851D03*
X013351Y024851D03*
X014101Y024851D03*
X011976Y029351D03*
X011976Y029851D03*
X019101Y016601D03*
X018601Y016226D03*
X018226Y016226D03*
X017851Y016226D03*
X017476Y016226D03*
X017101Y016226D03*
X016726Y016226D03*
X016351Y016226D03*
X015976Y016226D03*
X015601Y016226D03*
X015226Y016226D03*
X014851Y016226D03*
X014476Y016226D03*
X014101Y016226D03*
X013726Y016226D03*
X013351Y016226D03*
X012976Y016226D03*
X012601Y016226D03*
X012226Y016226D03*
X011851Y016226D03*
X011476Y016226D03*
X011101Y016226D03*
X010726Y016226D03*
X010351Y016226D03*
X009976Y016226D03*
X009601Y016226D03*
X009226Y016226D03*
X009226Y014976D03*
X009601Y014976D03*
X009976Y014976D03*
X010351Y014976D03*
X010726Y014976D03*
X011101Y014976D03*
X011476Y014976D03*
X011851Y014976D03*
X012226Y014976D03*
X012601Y014976D03*
X012976Y014976D03*
X013351Y014976D03*
X013726Y014976D03*
X014101Y014976D03*
X014476Y014976D03*
X014851Y014976D03*
X015226Y014976D03*
X015601Y014976D03*
X015976Y014976D03*
X016351Y014976D03*
X016726Y014976D03*
X017101Y014976D03*
X017476Y014976D03*
X017851Y014976D03*
X018226Y014976D03*
X018601Y014976D03*
X018976Y014976D03*
X019351Y014976D03*
X019726Y014976D03*
X019726Y016226D03*
X014476Y008476D03*
X013851Y008476D03*
X014476Y007726D03*
X014851Y007726D03*
X015226Y007726D03*
X015601Y007726D03*
X015851Y008101D03*
X016226Y008226D03*
X016601Y008226D03*
X016976Y008226D03*
X017351Y008226D03*
X017726Y008226D03*
X018101Y008226D03*
X018476Y008101D03*
X018726Y007726D03*
X019101Y007726D03*
X019476Y007726D03*
X019851Y007726D03*
X019851Y006476D03*
X019101Y006101D03*
X018476Y006101D03*
X018101Y005976D03*
X017726Y005976D03*
X017351Y005976D03*
X016976Y005976D03*
X016601Y005976D03*
X016226Y005976D03*
X015851Y006101D03*
X015601Y006476D03*
X015163Y006163D03*
X015163Y005538D03*
X014601Y004726D03*
X014851Y004351D03*
X015413Y003663D03*
X014726Y002851D03*
X014351Y002476D03*
X014101Y001976D03*
X013601Y001726D03*
X013101Y001726D03*
X012601Y001726D03*
X012101Y001726D03*
X011726Y001976D03*
X011351Y002351D03*
X010976Y002726D03*
X010726Y003101D03*
X010288Y003663D03*
X010851Y004351D03*
X011101Y004601D03*
X011351Y004851D03*
X011601Y005101D03*
X012288Y004226D03*
X012413Y003851D03*
X011976Y003913D03*
X012601Y004538D03*
X012851Y004851D03*
X013101Y004538D03*
X013413Y004226D03*
X013288Y003851D03*
X013726Y003913D03*
X012851Y003851D03*
X014226Y004976D03*
X013226Y006726D03*
X013226Y007101D03*
X013226Y007476D03*
X012851Y007476D03*
X012851Y007101D03*
X012851Y006726D03*
X012476Y006726D03*
X012476Y007101D03*
X012476Y007476D03*
X011851Y008476D03*
X011226Y008476D03*
X011101Y007726D03*
X010726Y007726D03*
X010351Y007726D03*
X009976Y007726D03*
X009601Y007726D03*
X009226Y007726D03*
X009226Y006476D03*
X009601Y006476D03*
X010538Y005476D03*
X010788Y006663D03*
X011226Y006663D03*
D30*
X011351Y007101D02*
X010288Y007101D01*
X008451Y007101D01*
X008401Y007051D01*
X010288Y007101D02*
X010288Y007103D01*
X012595Y005544D02*
X012593Y005492D01*
X012588Y005440D01*
X012580Y005388D01*
X012568Y005337D01*
X012553Y005287D01*
X012534Y005238D01*
X012512Y005190D01*
X012488Y005144D01*
X012460Y005100D01*
X012430Y005057D01*
X012396Y005017D01*
X012361Y004978D01*
X012361Y004979D02*
X011535Y004216D01*
X011535Y004217D02*
X011498Y004176D01*
X011463Y004133D01*
X011431Y004088D01*
X011402Y004040D01*
X011377Y003991D01*
X011355Y003940D01*
X011337Y003888D01*
X011322Y003834D01*
X011311Y003780D01*
X011304Y003725D01*
X011301Y003669D01*
X011302Y003614D01*
X011306Y003559D01*
X011315Y003504D01*
X011327Y003450D01*
X011342Y003397D01*
X011362Y003345D01*
X011385Y003294D01*
X011411Y003246D01*
X011441Y003199D01*
X011474Y003154D01*
X011510Y003112D01*
X011549Y003072D01*
X011590Y003036D01*
X011634Y003002D01*
X011680Y002971D01*
X011728Y002943D01*
X011778Y002919D01*
X011829Y002899D01*
X011882Y002882D01*
X011936Y002868D01*
X011990Y002859D01*
X012046Y002853D01*
X012101Y002851D01*
X012260Y002851D01*
X013441Y002851D02*
X013601Y002851D01*
X013656Y002853D01*
X013712Y002859D01*
X013766Y002868D01*
X013820Y002882D01*
X013873Y002899D01*
X013924Y002919D01*
X013974Y002943D01*
X014022Y002971D01*
X014068Y003002D01*
X014112Y003036D01*
X014153Y003072D01*
X014192Y003112D01*
X014228Y003154D01*
X014261Y003199D01*
X014291Y003246D01*
X014317Y003294D01*
X014340Y003345D01*
X014360Y003397D01*
X014375Y003450D01*
X014387Y003504D01*
X014396Y003559D01*
X014400Y003614D01*
X014401Y003669D01*
X014398Y003725D01*
X014391Y003780D01*
X014380Y003834D01*
X014365Y003888D01*
X014347Y003940D01*
X014325Y003991D01*
X014300Y004040D01*
X014271Y004088D01*
X014239Y004133D01*
X014204Y004176D01*
X014167Y004217D01*
X014166Y004216D02*
X013341Y004979D01*
X013341Y004978D02*
X013306Y005017D01*
X013272Y005057D01*
X013242Y005100D01*
X013214Y005144D01*
X013189Y005190D01*
X013168Y005238D01*
X013149Y005287D01*
X013134Y005337D01*
X013122Y005388D01*
X013114Y005440D01*
X013109Y005492D01*
X013107Y005544D01*
X014351Y007101D02*
X016510Y007101D01*
X017691Y007101D02*
X019098Y007101D01*
X019101Y007103D01*
X020598Y007103D01*
X020601Y007101D01*
X021001Y007101D01*
X020998Y015598D02*
X019101Y015598D01*
X019098Y015601D01*
X008501Y015601D01*
X012351Y019351D02*
X012101Y019601D01*
X012101Y021976D01*
X012726Y022601D01*
X012726Y022851D01*
X013780Y022309D02*
X013780Y021967D01*
X013663Y021851D01*
X013663Y021603D01*
X013666Y021601D01*
X013666Y020851D01*
X013666Y020536D01*
X013744Y020457D01*
X013744Y020101D01*
X014601Y020101D01*
X015036Y019661D02*
X014726Y019351D01*
X012351Y019351D01*
X012538Y019913D02*
X012726Y020101D01*
X012538Y020288D01*
X012726Y020101D02*
X012957Y020101D01*
X015036Y019661D02*
X015036Y020851D01*
X015476Y020101D02*
X016101Y020101D01*
X016476Y020476D01*
X016476Y022351D01*
X015976Y022851D01*
X015552Y024101D02*
X017536Y024101D01*
X018166Y024101D02*
X021001Y024101D01*
X015976Y025226D02*
X015976Y026351D01*
X015476Y026851D01*
X014726Y026851D01*
X014476Y027101D01*
X014476Y028726D01*
X014351Y028851D01*
X013726Y028851D01*
X013744Y028832D01*
X013744Y028101D01*
X013744Y027745D01*
X013666Y027666D01*
X013666Y027351D01*
X013666Y026601D01*
X013663Y026598D01*
X013663Y026351D01*
X013780Y026234D01*
X013780Y025892D01*
X012726Y025601D02*
X012726Y025226D01*
X012726Y025601D02*
X011476Y026851D01*
X010601Y026851D01*
X010260Y027191D01*
X010260Y027601D01*
X009316Y027601D01*
X008135Y027601D02*
X008135Y026885D01*
X007726Y026476D01*
X006101Y026476D01*
X005851Y026726D01*
X005851Y027617D01*
X005601Y028601D02*
X002851Y028601D01*
X002476Y028976D01*
X002476Y029191D01*
X002476Y028010D02*
X001351Y028010D01*
X001351Y027351D01*
X000851Y026851D01*
X000851Y010726D01*
X001101Y010476D01*
X012226Y010476D01*
X020998Y015598D02*
X021001Y015601D01*
X013150Y024101D02*
X008451Y024101D01*
X008401Y024151D01*
X011441Y027601D02*
X011726Y027601D01*
X011976Y027351D01*
X011726Y027601D02*
X011976Y027851D01*
X012538Y027913D02*
X012726Y028101D01*
X012538Y028288D01*
X012726Y028101D02*
X012957Y028101D01*
X012726Y028101D02*
X012726Y028101D01*
X011976Y029351D02*
X011726Y029601D01*
X011441Y029601D01*
X011726Y029601D02*
X011976Y029851D01*
X005851Y029585D02*
X005851Y028851D01*
X005601Y028601D01*
D31*
X012663Y027351D02*
X013036Y027351D01*
X013036Y026601D02*
X012663Y026601D01*
X014922Y022309D02*
X014922Y021967D01*
X015036Y021853D01*
X015036Y021601D01*
X015036Y020851D01*
X015666Y020851D02*
X016038Y020851D01*
X016038Y021601D02*
X015666Y021601D01*
X013036Y021601D02*
X012663Y021601D01*
X012663Y020851D02*
X013036Y020851D01*
X012476Y010476D02*
X012226Y010476D01*
X012476Y010226D01*
X012476Y009416D01*
X013226Y009416D02*
X013226Y009726D01*
X012476Y010476D01*
X011851Y008786D02*
X011851Y008476D01*
X011226Y008476D02*
X011226Y008786D01*
X011351Y007101D02*
X011476Y007101D01*
X011788Y006550D02*
X011788Y006351D01*
X011663Y006226D01*
X011541Y006101D01*
X011541Y005476D01*
X010911Y005476D02*
X010538Y005476D01*
X010661Y006101D02*
X010911Y006101D01*
X010661Y006101D02*
X010288Y006473D01*
X012595Y005732D02*
X012595Y005544D01*
X013107Y005544D02*
X013107Y005732D01*
X013913Y006288D02*
X013913Y006550D01*
X013913Y006288D02*
X014038Y006163D01*
X014161Y006163D01*
X014161Y005538D01*
X014791Y005538D02*
X015163Y005538D01*
X015163Y006163D02*
X014791Y006163D01*
X014351Y007101D02*
X014226Y007101D01*
X014476Y008476D02*
X014476Y008786D01*
X013851Y008786D02*
X013851Y008476D01*
X015041Y003663D02*
X015413Y003663D01*
X015413Y003663D01*
X019101Y006101D02*
X019101Y006101D01*
X019101Y006473D01*
X010661Y003663D02*
X010288Y003663D01*
D32*
X010323Y003663D02*
X010323Y003482D01*
X010336Y003436D01*
X010359Y003395D01*
X010393Y003362D01*
X010434Y003338D01*
X010480Y003326D01*
X010661Y003326D01*
X010842Y003326D01*
X010888Y003338D01*
X010929Y003362D01*
X010962Y003395D01*
X010982Y003430D01*
X010983Y003430D01*
X010982Y003430D02*
X011008Y003405D01*
X011051Y003216D01*
X011254Y002894D01*
X011551Y002657D01*
X011844Y002554D01*
X011844Y002379D01*
X012260Y002379D01*
X012260Y002378D01*
X012260Y002378D01*
X012260Y002041D01*
X012000Y002041D01*
X011955Y002053D01*
X011913Y002077D01*
X011880Y002110D01*
X011856Y002151D01*
X011844Y002197D01*
X011844Y002378D01*
X012260Y002378D01*
X012260Y002041D01*
X012316Y002041D01*
X012316Y002034D01*
X012409Y001941D01*
X012667Y001941D01*
X013292Y001941D01*
X013386Y002034D01*
X013386Y002041D01*
X013441Y002041D01*
X013441Y002378D01*
X013441Y002378D01*
X013441Y002041D01*
X013701Y002041D01*
X013747Y002053D01*
X013788Y002077D01*
X013822Y002110D01*
X013845Y002151D01*
X013858Y002197D01*
X013858Y002378D01*
X013442Y002378D01*
X013442Y002379D01*
X013858Y002379D01*
X013858Y002554D01*
X014150Y002657D01*
X014448Y002894D01*
X014650Y003216D01*
X014693Y003405D01*
X014719Y003430D01*
X014719Y003430D01*
X014739Y003395D01*
X014773Y003362D01*
X014814Y003338D01*
X014860Y003326D01*
X015041Y003326D01*
X015222Y003326D01*
X015268Y003338D01*
X015309Y003362D01*
X015342Y003395D01*
X015366Y003436D01*
X015378Y003482D01*
X015378Y003663D01*
X015041Y003663D01*
X015041Y003326D01*
X015041Y003663D01*
X015041Y003663D01*
X015041Y003664D01*
X015041Y003664D01*
X015041Y004001D01*
X015222Y004001D01*
X015268Y003989D01*
X015309Y003965D01*
X015342Y003931D01*
X015366Y003890D01*
X015378Y003845D01*
X015378Y003664D01*
X015041Y003664D01*
X015041Y004001D01*
X014860Y004001D01*
X014814Y003989D01*
X014773Y003965D01*
X014739Y003931D01*
X014719Y003896D01*
X014698Y003918D01*
X014692Y003965D01*
X014692Y003965D01*
X014527Y004308D01*
X014433Y004402D01*
X014430Y004408D01*
X014388Y004447D01*
X014348Y004488D01*
X014342Y004490D01*
X013566Y005207D01*
X013526Y005252D01*
X013463Y005361D01*
X013431Y005482D01*
X013427Y005544D01*
X013427Y005608D01*
X013421Y005622D01*
X013503Y005622D01*
X013596Y005716D01*
X013596Y006355D01*
X013633Y006355D01*
X013633Y006233D01*
X013676Y006130D01*
X013755Y006051D01*
X013843Y005962D01*
X013843Y005940D01*
X013881Y005902D01*
X013881Y005800D01*
X013843Y005762D01*
X013843Y005315D01*
X013937Y005221D01*
X014385Y005221D01*
X014469Y005305D01*
X014489Y005270D01*
X014523Y005237D01*
X014564Y005213D01*
X014610Y005201D01*
X014791Y005201D01*
X014972Y005201D01*
X015018Y005213D01*
X015059Y005237D01*
X015092Y005270D01*
X015116Y005311D01*
X015128Y005357D01*
X015128Y005538D01*
X014791Y005538D01*
X014791Y005201D01*
X014791Y005538D01*
X014791Y005538D01*
X014791Y005538D01*
X015128Y005538D01*
X015128Y005719D01*
X015116Y005765D01*
X015092Y005806D01*
X015059Y005840D01*
X015040Y005851D01*
X015059Y005862D01*
X015092Y005895D01*
X015116Y005936D01*
X015128Y005982D01*
X015128Y006163D01*
X014791Y006163D01*
X014791Y005826D01*
X014791Y005539D01*
X014791Y005539D01*
X014791Y005826D01*
X014791Y006163D01*
X014791Y006163D01*
X014791Y006163D01*
X015128Y006163D01*
X015128Y006344D01*
X015116Y006390D01*
X015092Y006431D01*
X015059Y006465D01*
X015018Y006488D01*
X014972Y006501D01*
X014791Y006501D01*
X014791Y006164D01*
X014791Y006164D01*
X014791Y006501D01*
X014610Y006501D01*
X014564Y006488D01*
X014523Y006465D01*
X014489Y006431D01*
X014469Y006396D01*
X014385Y006481D01*
X014330Y006481D01*
X014330Y006705D01*
X014330Y006781D01*
X016094Y006781D01*
X016094Y006629D01*
X016510Y006629D01*
X016510Y006628D01*
X016510Y006628D01*
X016510Y006291D01*
X016250Y006291D01*
X016205Y006303D01*
X016163Y006327D01*
X016130Y006360D01*
X016106Y006401D01*
X016094Y006447D01*
X016094Y006628D01*
X016510Y006628D01*
X016510Y006291D01*
X016566Y006291D01*
X016566Y006284D01*
X015128Y006284D01*
X015128Y006125D02*
X019941Y006125D01*
X019941Y006084D02*
X019933Y006070D01*
X019921Y006024D01*
X019921Y005581D01*
X020921Y005581D01*
X020921Y005421D01*
X021081Y005421D01*
X021081Y004821D01*
X021851Y004821D01*
X021851Y000351D01*
X000351Y000351D01*
X000351Y030851D01*
X021851Y030851D01*
X021851Y026381D01*
X021081Y026381D01*
X021081Y025781D01*
X020921Y025781D01*
X020921Y026381D01*
X020077Y026381D01*
X020031Y026368D01*
X019990Y026345D01*
X019957Y026311D01*
X019933Y026270D01*
X019921Y026224D01*
X019921Y025781D01*
X020921Y025781D01*
X020921Y025621D01*
X019921Y025621D01*
X019921Y025177D01*
X019933Y025131D01*
X019941Y025118D01*
X019941Y024667D01*
X019941Y024421D01*
X018102Y024421D01*
X018096Y024418D01*
X017942Y024418D01*
X017851Y024327D01*
X017760Y024418D01*
X017606Y024418D01*
X017599Y024421D01*
X015928Y024421D01*
X015928Y024502D01*
X015834Y024595D01*
X015151Y024595D01*
X015057Y024502D01*
X015057Y024384D01*
X015057Y023818D01*
X015057Y023700D01*
X015151Y023606D01*
X015834Y023606D01*
X015928Y023700D01*
X015928Y023781D01*
X017599Y023781D01*
X017606Y023783D01*
X017760Y023783D01*
X017851Y023875D01*
X017942Y023783D01*
X018096Y023783D01*
X018102Y023781D01*
X019941Y023781D01*
X019941Y023534D01*
X019941Y023084D01*
X019933Y023070D01*
X019921Y023024D01*
X019921Y022581D01*
X020921Y022581D01*
X020921Y022421D01*
X021081Y022421D01*
X021081Y021821D01*
X021851Y021821D01*
X021851Y017881D01*
X021081Y017881D01*
X021081Y017281D01*
X020921Y017281D01*
X020921Y017881D01*
X020077Y017881D01*
X020031Y017868D01*
X019990Y017845D01*
X019957Y017811D01*
X019933Y017770D01*
X019921Y017724D01*
X019921Y017281D01*
X020921Y017281D01*
X020921Y017121D01*
X019921Y017121D01*
X019921Y016677D01*
X019933Y016631D01*
X019941Y016618D01*
X019941Y016167D01*
X019941Y015918D01*
X019354Y015918D01*
X019369Y015927D01*
X019402Y015960D01*
X019426Y016001D01*
X019438Y016047D01*
X019438Y016228D01*
X019101Y016228D01*
X019101Y016228D01*
X019438Y016228D01*
X019438Y016409D01*
X019426Y016455D01*
X019402Y016496D01*
X019369Y016530D01*
X019328Y016553D01*
X019282Y016566D01*
X019101Y016566D01*
X019101Y016229D01*
X019101Y016229D01*
X019101Y016566D01*
X018920Y016566D01*
X018874Y016553D01*
X018833Y016530D01*
X018799Y016496D01*
X018776Y016455D01*
X018763Y016409D01*
X018763Y016228D01*
X018763Y016047D01*
X018776Y016001D01*
X018799Y015960D01*
X018833Y015927D01*
X018843Y015921D01*
X009061Y015921D01*
X009061Y016067D01*
X008967Y016161D01*
X008761Y016161D01*
X008761Y016767D01*
X008667Y016861D01*
X007984Y016861D01*
X007134Y016861D01*
X007041Y016767D01*
X007041Y014434D01*
X007134Y014341D01*
X007984Y014341D01*
X008667Y014341D01*
X008761Y014434D01*
X008761Y015041D01*
X008967Y015041D01*
X009061Y015134D01*
X009061Y015281D01*
X019031Y015281D01*
X019037Y015278D01*
X019941Y015278D01*
X019941Y015034D01*
X019941Y014584D01*
X019933Y014570D01*
X019921Y014524D01*
X019921Y014081D01*
X020921Y014081D01*
X020921Y013921D01*
X021081Y013921D01*
X021081Y013321D01*
X021851Y013321D01*
X021851Y009381D01*
X021081Y009381D01*
X021081Y008781D01*
X020921Y008781D01*
X020921Y009381D01*
X020077Y009381D01*
X020031Y009368D01*
X019990Y009345D01*
X019957Y009311D01*
X019933Y009270D01*
X019921Y009224D01*
X019921Y008781D01*
X020921Y008781D01*
X020921Y008621D01*
X019921Y008621D01*
X019921Y008177D01*
X019933Y008131D01*
X019941Y008118D01*
X019941Y007534D01*
X019941Y007423D01*
X019037Y007423D01*
X019031Y007421D01*
X018108Y007421D01*
X018108Y007573D01*
X017761Y007573D01*
X017761Y007573D01*
X018108Y007573D01*
X018108Y007754D01*
X018095Y007800D01*
X018072Y007841D01*
X018038Y007875D01*
X017997Y007898D01*
X017951Y007911D01*
X017761Y007911D01*
X017761Y007917D01*
X017667Y008011D01*
X016784Y008011D01*
X016691Y007917D01*
X016691Y007911D01*
X016688Y007911D01*
X016688Y007574D01*
X016687Y007574D01*
X016687Y007911D01*
X016250Y007911D01*
X016205Y007898D01*
X016163Y007875D01*
X016130Y007841D01*
X016106Y007800D01*
X016094Y007754D01*
X016094Y007573D01*
X016094Y007421D01*
X014330Y007421D01*
X014330Y007472D01*
X014330Y007753D01*
X014236Y007846D01*
X013596Y007846D01*
X013596Y008476D01*
X013624Y008461D01*
X013670Y008448D01*
X013851Y008448D01*
X014032Y008448D01*
X014078Y008461D01*
X014119Y008484D01*
X014152Y008518D01*
X014163Y008537D01*
X014174Y008518D01*
X014208Y008484D01*
X014249Y008461D01*
X014295Y008448D01*
X014476Y008448D01*
X014657Y008448D01*
X014703Y008461D01*
X014744Y008484D01*
X014777Y008518D01*
X014801Y008559D01*
X014813Y008605D01*
X014813Y008786D01*
X014813Y008967D01*
X014801Y009013D01*
X014777Y009054D01*
X014744Y009087D01*
X014709Y009107D01*
X014793Y009192D01*
X014793Y009639D01*
X014700Y009733D01*
X014252Y009733D01*
X014175Y009656D01*
X014152Y009656D01*
X014075Y009733D01*
X013627Y009733D01*
X013550Y009656D01*
X013527Y009656D01*
X013506Y009677D01*
X013506Y009781D01*
X013463Y009884D01*
X012713Y010634D01*
X012634Y010713D01*
X012531Y010756D01*
X012386Y010756D01*
X012289Y010796D01*
X009022Y010796D01*
X009031Y010827D01*
X009031Y011271D01*
X008531Y011271D01*
X008531Y011431D01*
X008371Y011431D01*
X008371Y012031D01*
X008027Y012031D01*
X007981Y012018D01*
X007940Y011995D01*
X007907Y011961D01*
X007883Y011920D01*
X007871Y011874D01*
X007871Y011431D01*
X008371Y011431D01*
X008371Y011271D01*
X007871Y011271D01*
X007871Y010827D01*
X007879Y010796D01*
X001233Y010796D01*
X001171Y010858D01*
X001171Y026718D01*
X001532Y027079D01*
X001622Y027169D01*
X001671Y027287D01*
X001671Y027535D01*
X001693Y027535D01*
X001786Y027629D01*
X001786Y027690D01*
X001843Y027690D01*
X001843Y027629D01*
X001937Y027535D01*
X003014Y027535D01*
X003108Y027629D01*
X003108Y028281D01*
X003424Y028281D01*
X003421Y028270D01*
X003421Y027662D01*
X003806Y027662D01*
X003806Y027571D01*
X003896Y027571D01*
X003896Y026807D01*
X004124Y026807D01*
X004170Y026819D01*
X004211Y026843D01*
X004245Y026876D01*
X004268Y026917D01*
X004281Y026963D01*
X004281Y027571D01*
X003896Y027571D01*
X003896Y027662D01*
X004281Y027662D01*
X004281Y028270D01*
X004278Y028281D01*
X004424Y028281D01*
X004421Y028270D01*
X004421Y027662D01*
X004806Y027662D01*
X004806Y027571D01*
X004896Y027571D01*
X004896Y026807D01*
X005124Y026807D01*
X005170Y026819D01*
X005211Y026843D01*
X005245Y026876D01*
X005268Y026917D01*
X005281Y026963D01*
X005281Y027571D01*
X004896Y027571D01*
X004896Y027662D01*
X005281Y027662D01*
X005281Y028270D01*
X005278Y028281D01*
X005441Y028281D01*
X005441Y026920D01*
X005531Y026830D01*
X005531Y026789D01*
X005531Y026662D01*
X005579Y026544D01*
X005829Y026294D01*
X005919Y026204D01*
X006037Y026156D01*
X007662Y026156D01*
X007789Y026156D01*
X007907Y026204D01*
X008406Y026704D01*
X008455Y026822D01*
X008455Y026949D01*
X008455Y026968D01*
X008516Y026968D01*
X008610Y027062D01*
X008610Y028139D01*
X008516Y028233D01*
X008009Y028233D01*
X008077Y028262D01*
X008474Y028659D01*
X008535Y028806D01*
X008535Y028965D01*
X008535Y028987D01*
X008610Y029062D01*
X008610Y030139D01*
X008516Y030233D01*
X007754Y030233D01*
X007660Y030139D01*
X007660Y029985D01*
X007261Y029985D01*
X007261Y030281D01*
X007167Y030375D01*
X006534Y030375D01*
X006441Y030281D01*
X006441Y028889D01*
X006534Y028795D01*
X006979Y028795D01*
X006591Y028406D01*
X006534Y028406D01*
X006441Y028313D01*
X006441Y026920D01*
X006534Y026827D01*
X007167Y026827D01*
X007261Y026920D01*
X007261Y027945D01*
X007516Y028201D01*
X007722Y028201D01*
X007660Y028139D01*
X007660Y027062D01*
X007754Y026968D01*
X007766Y026968D01*
X007593Y026796D01*
X006233Y026796D01*
X006185Y026844D01*
X006261Y026920D01*
X006261Y028313D01*
X006167Y028406D01*
X005859Y028406D01*
X005872Y028419D01*
X006122Y028669D01*
X006171Y028787D01*
X006171Y028799D01*
X006261Y028889D01*
X006261Y030281D01*
X006167Y030375D01*
X005534Y030375D01*
X005441Y030281D01*
X005441Y028921D01*
X005278Y028921D01*
X005281Y028931D01*
X005281Y029540D01*
X004896Y029540D01*
X004896Y029630D01*
X005281Y029630D01*
X005281Y030239D01*
X005268Y030284D01*
X005245Y030325D01*
X005211Y030359D01*
X005170Y030383D01*
X005124Y030395D01*
X004896Y030395D01*
X004896Y029630D01*
X004806Y029630D01*
X004806Y030395D01*
X004577Y030395D01*
X004531Y030383D01*
X004170Y030383D01*
X004124Y030395D01*
X003896Y030395D01*
X003896Y029630D01*
X004281Y029630D01*
X004281Y030239D01*
X004268Y030284D01*
X004245Y030325D01*
X004211Y030359D01*
X004170Y030383D01*
X004281Y030224D02*
X004421Y030224D01*
X004421Y030239D02*
X004421Y029630D01*
X004806Y029630D01*
X004806Y029540D01*
X004421Y029540D01*
X004421Y028931D01*
X004424Y028921D01*
X004278Y028921D01*
X004281Y028931D01*
X004281Y029540D01*
X003896Y029540D01*
X003896Y029630D01*
X003806Y029630D01*
X003806Y030395D01*
X003577Y030395D01*
X003531Y030383D01*
X000351Y030383D01*
X000351Y030541D02*
X021851Y030541D01*
X021851Y030383D02*
X005170Y030383D01*
X005281Y030224D02*
X005441Y030224D01*
X005441Y030065D02*
X005281Y030065D01*
X005281Y029907D02*
X005441Y029907D01*
X005441Y029748D02*
X005281Y029748D01*
X005441Y029590D02*
X004896Y029590D01*
X004806Y029590D02*
X003896Y029590D01*
X003806Y029590D02*
X003091Y029590D01*
X003108Y029573D02*
X003014Y029666D01*
X001937Y029666D01*
X001843Y029573D01*
X001843Y028810D01*
X001937Y028716D01*
X002283Y028716D01*
X002514Y028485D01*
X001937Y028485D01*
X001843Y028391D01*
X001843Y028330D01*
X001786Y028330D01*
X001786Y028391D01*
X001693Y028485D01*
X001009Y028485D01*
X000915Y028391D01*
X000915Y027629D01*
X001009Y027535D01*
X001031Y027535D01*
X001031Y027483D01*
X000579Y027032D01*
X000531Y026914D01*
X000531Y026787D01*
X000531Y010662D01*
X000579Y010544D01*
X000669Y010454D01*
X000919Y010204D01*
X001037Y010156D01*
X001164Y010156D01*
X007904Y010156D01*
X007883Y010120D01*
X007871Y010074D01*
X007871Y009631D01*
X008371Y009631D01*
X008371Y009471D01*
X008531Y009471D01*
X008531Y009631D01*
X009031Y009631D01*
X009031Y010074D01*
X009018Y010120D01*
X008998Y010156D01*
X012150Y010156D01*
X012196Y010110D01*
X012196Y009677D01*
X012175Y009656D01*
X012152Y009656D01*
X012075Y009733D01*
X011627Y009733D01*
X011550Y009656D01*
X011527Y009656D01*
X011450Y009733D01*
X011002Y009733D01*
X010908Y009639D01*
X010908Y009192D01*
X010993Y009107D01*
X010958Y009087D01*
X010924Y009054D01*
X010901Y009013D01*
X010888Y008967D01*
X010888Y008786D01*
X011225Y008786D01*
X011225Y008786D01*
X010888Y008786D01*
X010888Y008605D01*
X010901Y008559D01*
X010924Y008518D01*
X010958Y008484D01*
X010999Y008461D01*
X011045Y008448D01*
X011226Y008448D01*
X011407Y008448D01*
X011453Y008461D01*
X011494Y008484D01*
X011527Y008518D01*
X011538Y008537D01*
X011549Y008518D01*
X011583Y008484D01*
X011624Y008461D01*
X011670Y008448D01*
X011851Y008448D01*
X012032Y008448D01*
X012078Y008461D01*
X012105Y008476D01*
X012105Y007846D01*
X011466Y007846D01*
X011372Y007753D01*
X011372Y007497D01*
X011372Y007421D01*
X010358Y007421D01*
X010352Y007423D01*
X010225Y007423D01*
X010219Y007421D01*
X009061Y007421D01*
X009061Y007517D01*
X008967Y007611D01*
X008761Y007611D01*
X008761Y008117D01*
X008667Y008211D01*
X007784Y008211D01*
X007134Y008211D01*
X007041Y008117D01*
X007041Y006684D01*
X007134Y006591D01*
X007741Y006591D01*
X007741Y006584D01*
X007834Y006491D01*
X008967Y006491D01*
X009061Y006584D01*
X009061Y006781D01*
X010055Y006781D01*
X009971Y006697D01*
X009971Y006250D01*
X010065Y006156D01*
X010210Y006156D01*
X010423Y005942D01*
X010502Y005863D01*
X010605Y005821D01*
X010650Y005821D01*
X010675Y005796D01*
X010643Y005777D01*
X010609Y005744D01*
X010586Y005703D01*
X010573Y005657D01*
X010573Y005476D01*
X010910Y005476D01*
X010910Y005476D01*
X010573Y005476D01*
X010573Y005295D01*
X010586Y005249D01*
X010609Y005208D01*
X010643Y005174D01*
X000351Y005174D01*
X000351Y005016D02*
X011929Y005016D01*
X011780Y005174D02*
X012101Y005174D01*
X012136Y005207D02*
X011360Y004490D01*
X011354Y004488D01*
X011314Y004448D01*
X011271Y004408D01*
X011268Y004402D01*
X011174Y004308D01*
X011009Y003965D01*
X011004Y003918D01*
X010982Y003896D01*
X010962Y003931D01*
X010929Y003965D01*
X010888Y003988D01*
X010842Y004001D01*
X010661Y004001D01*
X010661Y003664D01*
X010661Y003664D01*
X010661Y004001D01*
X010480Y004001D01*
X010434Y003988D01*
X010393Y003965D01*
X010359Y003931D01*
X010336Y003890D01*
X010323Y003844D01*
X010323Y003663D01*
X010660Y003663D01*
X010660Y003663D01*
X010661Y003663D02*
X010661Y003663D01*
X010661Y003326D01*
X010661Y003663D01*
X010660Y003663D02*
X010323Y003663D01*
X010323Y003589D02*
X000351Y003589D01*
X000351Y003747D02*
X010323Y003747D01*
X010345Y003906D02*
X000351Y003906D01*
X000351Y004064D02*
X011057Y004064D01*
X011009Y003965D02*
X011009Y003965D01*
X010992Y003906D02*
X010977Y003906D01*
X010661Y003906D02*
X010661Y003906D01*
X010661Y003747D02*
X010661Y003747D01*
X010661Y003589D02*
X010661Y003589D01*
X010661Y003430D02*
X010661Y003430D01*
X011039Y003272D02*
X000351Y003272D01*
X000351Y003430D02*
X010339Y003430D01*
X011051Y003216D02*
X011051Y003216D01*
X011116Y003113D02*
X000351Y003113D01*
X000351Y002955D02*
X011216Y002955D01*
X011254Y002894D02*
X011254Y002894D01*
X011254Y002894D01*
X011376Y002796D02*
X000351Y002796D01*
X000351Y002637D02*
X011606Y002637D01*
X011551Y002657D02*
X011551Y002657D01*
X011844Y002479D02*
X000351Y002479D01*
X000351Y002320D02*
X011844Y002320D01*
X011853Y002162D02*
X000351Y002162D01*
X000351Y002003D02*
X012347Y002003D01*
X012260Y002162D02*
X012260Y002162D01*
X012260Y002320D02*
X012260Y002320D01*
X012437Y003323D02*
X011844Y003323D01*
X011844Y003250D01*
X011743Y003331D01*
X011657Y003467D01*
X011622Y003624D01*
X011640Y003784D01*
X011709Y003929D01*
X011760Y003989D01*
X012536Y004705D01*
X012542Y004707D01*
X012582Y004748D01*
X012624Y004787D01*
X012627Y004793D01*
X012691Y004857D01*
X013010Y004857D01*
X013010Y004857D01*
X012863Y005112D01*
X012863Y005112D01*
X012851Y005158D01*
X012839Y005112D01*
X012839Y005112D01*
X012691Y004857D01*
X012691Y004857D01*
X012783Y005016D02*
X012919Y005016D01*
X013010Y004857D02*
X013074Y004793D01*
X013077Y004787D01*
X013120Y004747D01*
X013160Y004707D01*
X013166Y004705D01*
X013942Y003988D01*
X013992Y003929D01*
X014062Y003784D01*
X014080Y003624D01*
X014044Y003467D01*
X013959Y003331D01*
X013858Y003250D01*
X013858Y003323D01*
X013442Y003323D01*
X013442Y003323D01*
X013858Y003323D01*
X013858Y003504D01*
X013845Y003550D01*
X013822Y003591D01*
X013788Y003625D01*
X013747Y003648D01*
X013701Y003661D01*
X013441Y003661D01*
X013386Y003661D01*
X013386Y003667D01*
X013292Y003761D01*
X012534Y003761D01*
X012441Y003667D01*
X012441Y003661D01*
X012438Y003661D01*
X012438Y003324D01*
X012437Y003324D01*
X012437Y003661D01*
X012000Y003661D01*
X011955Y003648D01*
X011913Y003625D01*
X011880Y003591D01*
X011856Y003550D01*
X011844Y003504D01*
X011844Y003323D01*
X012437Y003323D01*
X012437Y003323D01*
X012437Y003430D02*
X012438Y003430D01*
X012437Y003589D02*
X012438Y003589D01*
X012521Y003747D02*
X011635Y003747D01*
X011630Y003589D02*
X011879Y003589D01*
X011844Y003430D02*
X011681Y003430D01*
X011817Y003272D02*
X011844Y003272D01*
X011698Y003906D02*
X014003Y003906D01*
X014066Y003747D02*
X013305Y003747D01*
X013441Y003661D02*
X013441Y003324D01*
X013441Y003324D01*
X013441Y003661D01*
X013441Y003589D02*
X013441Y003589D01*
X013441Y003430D02*
X013441Y003430D01*
X013823Y003589D02*
X014072Y003589D01*
X014021Y003430D02*
X013858Y003430D01*
X013858Y003272D02*
X013884Y003272D01*
X014325Y002796D02*
X021851Y002796D01*
X021851Y002637D02*
X014096Y002637D01*
X014150Y002657D02*
X014150Y002657D01*
X013858Y002479D02*
X021851Y002479D01*
X021851Y002320D02*
X013858Y002320D01*
X013848Y002162D02*
X021851Y002162D01*
X021851Y002003D02*
X013355Y002003D01*
X013441Y002162D02*
X013441Y002162D01*
X013441Y002320D02*
X013441Y002320D01*
X014448Y002894D02*
X014448Y002894D01*
X014448Y002894D01*
X014486Y002955D02*
X021851Y002955D01*
X021851Y003113D02*
X014586Y003113D01*
X014650Y003216D02*
X014650Y003216D01*
X014663Y003272D02*
X021851Y003272D01*
X021851Y003430D02*
X015362Y003430D01*
X015378Y003589D02*
X021851Y003589D01*
X021851Y003747D02*
X015378Y003747D01*
X015357Y003906D02*
X021851Y003906D01*
X021851Y004064D02*
X014645Y004064D01*
X014710Y003906D02*
X014725Y003906D01*
X015041Y003906D02*
X015041Y003906D01*
X015041Y003747D02*
X015041Y003747D01*
X015041Y003589D02*
X015041Y003589D01*
X015041Y003430D02*
X015041Y003430D01*
X014568Y004223D02*
X021851Y004223D01*
X021851Y004381D02*
X014454Y004381D01*
X014527Y004308D02*
X014527Y004308D01*
X014288Y004540D02*
X021851Y004540D01*
X021851Y004699D02*
X014116Y004699D01*
X013944Y004857D02*
X019990Y004857D01*
X020031Y004833D01*
X020077Y004821D01*
X020921Y004821D01*
X020921Y005421D01*
X019921Y005421D01*
X019921Y004977D01*
X019933Y004931D01*
X019957Y004890D01*
X019990Y004857D01*
X019921Y005016D02*
X013773Y005016D01*
X013601Y005174D02*
X019921Y005174D01*
X019921Y005333D02*
X015122Y005333D01*
X015128Y005491D02*
X020921Y005491D01*
X020921Y005333D02*
X021081Y005333D01*
X021081Y005174D02*
X020921Y005174D01*
X020921Y005016D02*
X021081Y005016D01*
X021081Y004857D02*
X020921Y004857D01*
X019921Y005650D02*
X015128Y005650D01*
X015090Y005808D02*
X019921Y005808D01*
X019921Y005967D02*
X015124Y005967D01*
X015081Y006443D02*
X016095Y006443D01*
X016094Y006601D02*
X014330Y006601D01*
X014330Y006760D02*
X016094Y006760D01*
X016510Y006601D02*
X016510Y006601D01*
X016510Y006443D02*
X016510Y006443D01*
X016566Y006284D02*
X016659Y006191D01*
X016917Y006191D01*
X017667Y006191D01*
X017761Y006284D01*
X017761Y006291D01*
X017951Y006291D01*
X017997Y006303D01*
X018038Y006327D01*
X018072Y006360D01*
X018095Y006401D01*
X018108Y006447D01*
X018108Y006628D01*
X017761Y006628D01*
X017761Y006629D01*
X018108Y006629D01*
X018108Y006781D01*
X018843Y006781D01*
X018833Y006775D01*
X018799Y006741D01*
X018776Y006700D01*
X018763Y006655D01*
X018763Y006474D01*
X019100Y006474D01*
X019100Y006473D01*
X018763Y006473D01*
X018763Y006292D01*
X018776Y006246D01*
X018799Y006205D01*
X018833Y006172D01*
X018874Y006148D01*
X018920Y006136D01*
X019101Y006136D01*
X019282Y006136D01*
X019328Y006148D01*
X019369Y006172D01*
X019402Y006205D01*
X019426Y006246D01*
X019438Y006292D01*
X019438Y006473D01*
X019101Y006473D01*
X019101Y006136D01*
X019101Y006473D01*
X019101Y006473D01*
X019101Y006474D01*
X019438Y006474D01*
X019438Y006655D01*
X019426Y006700D01*
X019402Y006741D01*
X019369Y006775D01*
X019354Y006783D01*
X019941Y006783D01*
X019941Y006667D01*
X019941Y006084D01*
X019941Y006284D02*
X019436Y006284D01*
X019438Y006443D02*
X019941Y006443D01*
X019941Y006601D02*
X019438Y006601D01*
X019384Y006760D02*
X019941Y006760D01*
X019941Y007552D02*
X018108Y007552D01*
X018108Y007711D02*
X019941Y007711D01*
X019941Y007869D02*
X018043Y007869D01*
X018108Y006760D02*
X018817Y006760D01*
X018763Y006601D02*
X018108Y006601D01*
X018106Y006443D02*
X018763Y006443D01*
X018765Y006284D02*
X017760Y006284D01*
X016687Y007573D02*
X016094Y007573D01*
X016687Y007573D01*
X016687Y007573D01*
X016687Y007711D02*
X016688Y007711D01*
X016687Y007869D02*
X016688Y007869D01*
X016158Y007869D02*
X013596Y007869D01*
X013596Y008028D02*
X019941Y008028D01*
X019921Y008186D02*
X013596Y008186D01*
X013596Y008345D02*
X019921Y008345D01*
X019921Y008504D02*
X014763Y008504D01*
X014813Y008662D02*
X020921Y008662D01*
X020921Y008821D02*
X021081Y008821D01*
X021081Y008979D02*
X020921Y008979D01*
X020921Y009138D02*
X021081Y009138D01*
X021081Y009296D02*
X020921Y009296D01*
X021851Y009455D02*
X014793Y009455D01*
X014793Y009613D02*
X021851Y009613D01*
X021851Y009772D02*
X013506Y009772D01*
X013417Y009930D02*
X021851Y009930D01*
X021851Y010089D02*
X013258Y010089D01*
X013100Y010248D02*
X021851Y010248D01*
X021851Y010406D02*
X012941Y010406D01*
X012783Y010565D02*
X021851Y010565D01*
X021851Y010723D02*
X012610Y010723D01*
X012196Y010089D02*
X009027Y010089D01*
X009031Y009930D02*
X012196Y009930D01*
X012196Y009772D02*
X009031Y009772D01*
X009031Y009471D02*
X008531Y009471D01*
X008531Y008871D01*
X008874Y008871D01*
X008920Y008883D01*
X008961Y008907D01*
X008995Y008940D01*
X009018Y008981D01*
X009031Y009027D01*
X009031Y009471D01*
X009031Y009455D02*
X010908Y009455D01*
X010908Y009613D02*
X008531Y009613D01*
X008531Y009455D02*
X008371Y009455D01*
X008371Y009471D02*
X008371Y008871D01*
X008027Y008871D01*
X007981Y008883D01*
X007940Y008907D01*
X007907Y008940D01*
X007883Y008981D01*
X007871Y009027D01*
X007871Y009471D01*
X008371Y009471D01*
X008371Y009613D02*
X000351Y009613D01*
X000351Y009455D02*
X007871Y009455D01*
X007871Y009296D02*
X000351Y009296D01*
X000351Y009138D02*
X007871Y009138D01*
X007884Y008979D02*
X003080Y008979D01*
X003074Y008981D02*
X002731Y008981D01*
X002731Y008381D01*
X002571Y008381D01*
X002571Y008981D01*
X002227Y008981D01*
X002181Y008968D01*
X002140Y008945D01*
X002107Y008911D01*
X002083Y008870D01*
X002071Y008824D01*
X002071Y008381D01*
X002571Y008381D01*
X002571Y008221D01*
X002731Y008221D01*
X002731Y008381D01*
X003231Y008381D01*
X003231Y008824D01*
X003218Y008870D01*
X003195Y008911D01*
X003161Y008945D01*
X003120Y008968D01*
X003074Y008981D01*
X003231Y008821D02*
X010888Y008821D01*
X010892Y008979D02*
X009017Y008979D01*
X009031Y009138D02*
X010963Y009138D01*
X010908Y009296D02*
X009031Y009296D01*
X008531Y009296D02*
X008371Y009296D01*
X008371Y009138D02*
X008531Y009138D01*
X008531Y008979D02*
X008371Y008979D01*
X008691Y008186D02*
X012105Y008186D01*
X012105Y008028D02*
X008761Y008028D01*
X008761Y007869D02*
X012105Y007869D01*
X012105Y008345D02*
X002731Y008345D01*
X002731Y008221D02*
X003231Y008221D01*
X003231Y007777D01*
X003218Y007731D01*
X003195Y007690D01*
X003161Y007657D01*
X003120Y007633D01*
X003074Y007621D01*
X002731Y007621D01*
X002731Y008221D01*
X002731Y008186D02*
X002571Y008186D01*
X002571Y008221D02*
X002571Y007621D01*
X002227Y007621D01*
X002181Y007633D01*
X002140Y007657D01*
X002107Y007690D01*
X002083Y007731D01*
X002071Y007777D01*
X002071Y008221D01*
X002571Y008221D01*
X002571Y008345D02*
X000351Y008345D01*
X000351Y008186D02*
X002071Y008186D01*
X002071Y008028D02*
X000351Y008028D01*
X000351Y007869D02*
X002071Y007869D01*
X002095Y007711D02*
X000351Y007711D01*
X000351Y007552D02*
X007041Y007552D01*
X007041Y007394D02*
X006855Y007394D01*
X006845Y007411D02*
X006811Y007445D01*
X006770Y007468D01*
X006724Y007481D01*
X006281Y007481D01*
X006281Y006981D01*
X006121Y006981D01*
X006121Y007481D01*
X005677Y007481D01*
X005631Y007468D01*
X005590Y007445D01*
X005557Y007411D01*
X005533Y007370D01*
X005521Y007324D01*
X005521Y006981D01*
X006121Y006981D01*
X006121Y006821D01*
X005521Y006821D01*
X005521Y006477D01*
X005533Y006431D01*
X005557Y006390D01*
X005590Y006357D01*
X005631Y006333D01*
X005677Y006321D01*
X006121Y006321D01*
X006121Y006821D01*
X006281Y006821D01*
X006281Y006981D01*
X006881Y006981D01*
X006881Y007324D01*
X006868Y007370D01*
X006845Y007411D01*
X006881Y007235D02*
X007041Y007235D01*
X007041Y007077D02*
X006881Y007077D01*
X007041Y006918D02*
X006281Y006918D01*
X006281Y006821D02*
X006881Y006821D01*
X006881Y006477D01*
X006868Y006431D01*
X006845Y006390D01*
X006811Y006357D01*
X006770Y006333D01*
X006724Y006321D01*
X006281Y006321D01*
X006281Y006821D01*
X006281Y006760D02*
X006121Y006760D01*
X006121Y006918D02*
X003781Y006918D01*
X003781Y006981D02*
X004381Y006981D01*
X004381Y007324D01*
X004368Y007370D01*
X004345Y007411D01*
X004311Y007445D01*
X004270Y007468D01*
X004224Y007481D01*
X003781Y007481D01*
X003781Y006981D01*
X003621Y006981D01*
X003621Y007481D01*
X003177Y007481D01*
X003131Y007468D01*
X003090Y007445D01*
X003057Y007411D01*
X003033Y007370D01*
X003021Y007324D01*
X003021Y006981D01*
X003621Y006981D01*
X003621Y006821D01*
X003021Y006821D01*
X003021Y006477D01*
X003033Y006431D01*
X003057Y006390D01*
X003090Y006357D01*
X003131Y006333D01*
X003177Y006321D01*
X003621Y006321D01*
X003621Y006821D01*
X003781Y006821D01*
X003781Y006981D01*
X003781Y007077D02*
X003621Y007077D01*
X003621Y007235D02*
X003781Y007235D01*
X003781Y007394D02*
X003621Y007394D01*
X003621Y006918D02*
X000351Y006918D01*
X000351Y006760D02*
X003021Y006760D01*
X003021Y006601D02*
X000351Y006601D01*
X000351Y006443D02*
X003030Y006443D01*
X003621Y006443D02*
X003781Y006443D01*
X003781Y006321D02*
X004224Y006321D01*
X004270Y006333D01*
X004311Y006357D01*
X004345Y006390D01*
X004368Y006431D01*
X004381Y006477D01*
X004381Y006821D01*
X003781Y006821D01*
X003781Y006321D01*
X003781Y006601D02*
X003621Y006601D01*
X003621Y006760D02*
X003781Y006760D01*
X004381Y006760D02*
X005521Y006760D01*
X005521Y006601D02*
X004381Y006601D01*
X004371Y006443D02*
X005530Y006443D01*
X006121Y006443D02*
X006281Y006443D01*
X006281Y006601D02*
X006121Y006601D01*
X006121Y007077D02*
X006281Y007077D01*
X006281Y007235D02*
X006121Y007235D01*
X006121Y007394D02*
X006281Y007394D01*
X006881Y006760D02*
X007041Y006760D01*
X007124Y006601D02*
X006881Y006601D01*
X006871Y006443D02*
X009971Y006443D01*
X009971Y006601D02*
X009061Y006601D01*
X009061Y006760D02*
X010033Y006760D01*
X009971Y006284D02*
X000351Y006284D01*
X000351Y006125D02*
X010240Y006125D01*
X010399Y005967D02*
X000351Y005967D01*
X000351Y005808D02*
X010662Y005808D01*
X010573Y005650D02*
X000351Y005650D01*
X000351Y005491D02*
X010573Y005491D01*
X010573Y005333D02*
X000351Y005333D01*
X000351Y004857D02*
X011757Y004857D01*
X011586Y004699D02*
X000351Y004699D01*
X000351Y004540D02*
X011414Y004540D01*
X011248Y004381D02*
X000351Y004381D01*
X000351Y004223D02*
X011133Y004223D01*
X011174Y004308D02*
X011174Y004308D01*
X011842Y004064D02*
X013859Y004064D01*
X013688Y004223D02*
X012014Y004223D01*
X012185Y004381D02*
X013516Y004381D01*
X013344Y004540D02*
X012357Y004540D01*
X012529Y004699D02*
X013173Y004699D01*
X013479Y005333D02*
X013843Y005333D01*
X013843Y005491D02*
X013430Y005491D01*
X013531Y005650D02*
X013843Y005650D01*
X013881Y005808D02*
X013596Y005808D01*
X013596Y005967D02*
X013839Y005967D01*
X013680Y006125D02*
X013596Y006125D01*
X013596Y006284D02*
X013633Y006284D01*
X013419Y007021D02*
X012931Y007021D01*
X012931Y007181D01*
X013419Y007181D01*
X013419Y007021D01*
X013419Y007077D02*
X012931Y007077D01*
X012931Y007021D02*
X012931Y006532D01*
X012771Y006532D01*
X012771Y007021D01*
X012931Y007021D01*
X012931Y006918D02*
X012771Y006918D01*
X012771Y007021D02*
X012282Y007021D01*
X012282Y007181D01*
X012771Y007181D01*
X012771Y007669D01*
X012931Y007669D01*
X012931Y007181D01*
X012771Y007181D01*
X012771Y007021D01*
X012771Y007077D02*
X012282Y007077D01*
X012771Y007235D02*
X012931Y007235D01*
X012931Y007394D02*
X012771Y007394D01*
X012771Y007552D02*
X012931Y007552D01*
X012931Y006760D02*
X012771Y006760D01*
X012771Y006601D02*
X012931Y006601D01*
X012105Y006355D02*
X012105Y005716D01*
X012199Y005622D01*
X012281Y005622D01*
X012275Y005608D01*
X012275Y005544D01*
X012271Y005482D01*
X012238Y005361D01*
X012176Y005252D01*
X012136Y005207D01*
X012222Y005333D02*
X011858Y005333D01*
X011858Y005252D02*
X011858Y005700D01*
X011821Y005737D01*
X011821Y005840D01*
X011858Y005877D01*
X011858Y006025D01*
X011862Y006029D01*
X011947Y006113D01*
X012026Y006192D01*
X012068Y006295D01*
X012068Y006355D01*
X012105Y006355D01*
X012105Y006284D02*
X012064Y006284D01*
X012105Y006125D02*
X011959Y006125D01*
X011858Y005967D02*
X012105Y005967D01*
X012105Y005808D02*
X011821Y005808D01*
X011858Y005650D02*
X012171Y005650D01*
X012271Y005491D02*
X011858Y005491D01*
X011858Y005252D02*
X011764Y005158D01*
X011317Y005158D01*
X011232Y005243D01*
X011212Y005208D01*
X011179Y005174D01*
X011138Y005151D01*
X011092Y005138D01*
X010911Y005138D01*
X010911Y005475D01*
X010911Y005475D01*
X010911Y005138D01*
X010730Y005138D01*
X010684Y005151D01*
X010643Y005174D01*
X010911Y005174D02*
X010911Y005174D01*
X010911Y005333D02*
X010911Y005333D01*
X011179Y005174D02*
X011301Y005174D01*
X010423Y005942D02*
X010423Y005942D01*
X010739Y006418D02*
X010606Y006552D01*
X010606Y006697D01*
X010522Y006781D01*
X011372Y006781D01*
X011372Y006729D01*
X011372Y006449D01*
X011403Y006418D01*
X011317Y006418D01*
X011226Y006327D01*
X011135Y006418D01*
X010739Y006418D01*
X010715Y006443D02*
X011378Y006443D01*
X011372Y006601D02*
X010606Y006601D01*
X010543Y006760D02*
X011372Y006760D01*
X011372Y007552D02*
X009025Y007552D01*
X008761Y007711D02*
X011372Y007711D01*
X011226Y008448D02*
X011226Y008785D01*
X011226Y008785D01*
X011226Y008448D01*
X011226Y008504D02*
X011226Y008504D01*
X011226Y008662D02*
X011226Y008662D01*
X011226Y008786D02*
X011226Y008786D01*
X011563Y008786D01*
X011850Y008786D01*
X011850Y008786D01*
X011563Y008786D01*
X011226Y008786D01*
X011513Y008504D02*
X011563Y008504D01*
X011851Y008504D02*
X011851Y008504D01*
X011851Y008448D02*
X011851Y008785D01*
X011851Y008785D01*
X011851Y008448D01*
X011851Y008662D02*
X011851Y008662D01*
X011851Y009416D02*
X011226Y009416D01*
X011851Y009416D02*
X012476Y009416D01*
X013226Y009416D02*
X013851Y009416D01*
X014476Y009416D01*
X014793Y009296D02*
X019948Y009296D01*
X019921Y009138D02*
X014739Y009138D01*
X014810Y008979D02*
X019921Y008979D01*
X019921Y008821D02*
X014813Y008821D01*
X014813Y008786D02*
X014476Y008786D01*
X014476Y008786D01*
X014813Y008786D01*
X014476Y008785D02*
X014476Y008448D01*
X014476Y008785D01*
X014476Y008785D01*
X014475Y008786D02*
X014138Y008786D01*
X014475Y008786D01*
X014475Y008786D01*
X014476Y008662D02*
X014476Y008662D01*
X014476Y008504D02*
X014476Y008504D01*
X014188Y008504D02*
X014138Y008504D01*
X014138Y008786D02*
X013851Y008786D01*
X014138Y008786D01*
X013851Y008786D02*
X013851Y008786D01*
X013851Y008785D02*
X013851Y008448D01*
X013851Y008785D01*
X013851Y008785D01*
X013851Y008662D02*
X013851Y008662D01*
X013851Y008504D02*
X013851Y008504D01*
X014330Y007711D02*
X016094Y007711D01*
X016094Y007552D02*
X014330Y007552D01*
X014423Y006443D02*
X014500Y006443D01*
X014791Y006443D02*
X014791Y006443D01*
X014791Y006284D02*
X014791Y006284D01*
X014791Y006125D02*
X014791Y006125D01*
X014791Y005967D02*
X014791Y005967D01*
X014791Y005808D02*
X014791Y005808D01*
X014791Y005650D02*
X014791Y005650D01*
X014791Y005491D02*
X014791Y005491D01*
X014791Y005333D02*
X014791Y005333D01*
X010938Y008504D02*
X003231Y008504D01*
X003231Y008662D02*
X010888Y008662D01*
X009031Y010882D02*
X021851Y010882D01*
X021851Y011040D02*
X009031Y011040D01*
X009031Y011199D02*
X021851Y011199D01*
X021851Y011357D02*
X008531Y011357D01*
X008531Y011431D02*
X009031Y011431D01*
X009031Y011874D01*
X009018Y011920D01*
X008995Y011961D01*
X008961Y011995D01*
X008920Y012018D01*
X008874Y012031D01*
X008531Y012031D01*
X008531Y011431D01*
X008531Y011516D02*
X008371Y011516D01*
X008371Y011674D02*
X008531Y011674D01*
X008531Y011833D02*
X008371Y011833D01*
X008371Y011992D02*
X008531Y011992D01*
X008531Y012371D02*
X008874Y012371D01*
X008920Y012383D01*
X008961Y012407D01*
X008995Y012440D01*
X009018Y012481D01*
X009031Y012527D01*
X009031Y012971D01*
X008531Y012971D01*
X008531Y013131D01*
X008371Y013131D01*
X008371Y013731D01*
X008027Y013731D01*
X007981Y013718D01*
X007940Y013695D01*
X007907Y013661D01*
X007883Y013620D01*
X007871Y013574D01*
X007871Y013131D01*
X008371Y013131D01*
X008371Y012971D01*
X008531Y012971D01*
X008531Y012371D01*
X008531Y012467D02*
X008371Y012467D01*
X008371Y012371D02*
X008371Y012971D01*
X007871Y012971D01*
X007871Y012527D01*
X007883Y012481D01*
X007907Y012440D01*
X007940Y012407D01*
X007981Y012383D01*
X008027Y012371D01*
X008371Y012371D01*
X008371Y012626D02*
X008531Y012626D01*
X008531Y012784D02*
X008371Y012784D01*
X008371Y012943D02*
X008531Y012943D01*
X008531Y013101D02*
X021851Y013101D01*
X021851Y012943D02*
X009031Y012943D01*
X009031Y012784D02*
X021851Y012784D01*
X021851Y012626D02*
X009031Y012626D01*
X009010Y012467D02*
X021851Y012467D01*
X021851Y012309D02*
X003231Y012309D01*
X003231Y012277D02*
X003231Y012721D01*
X002731Y012721D01*
X002731Y012881D01*
X002571Y012881D01*
X002571Y013481D01*
X002227Y013481D01*
X002181Y013468D01*
X002140Y013445D01*
X002107Y013411D01*
X002083Y013370D01*
X002071Y013324D01*
X002071Y012881D01*
X002571Y012881D01*
X002571Y012721D01*
X002731Y012721D01*
X002731Y012121D01*
X003074Y012121D01*
X003120Y012133D01*
X003161Y012157D01*
X003195Y012190D01*
X003218Y012231D01*
X003231Y012277D01*
X003150Y012150D02*
X021851Y012150D01*
X021851Y011992D02*
X008965Y011992D01*
X009031Y011833D02*
X021851Y011833D01*
X021851Y011674D02*
X009031Y011674D01*
X009031Y011516D02*
X021851Y011516D01*
X021851Y013260D02*
X009031Y013260D01*
X009031Y013131D02*
X009031Y013574D01*
X009018Y013620D01*
X008995Y013661D01*
X008961Y013695D01*
X008920Y013718D01*
X008874Y013731D01*
X008531Y013731D01*
X008531Y013131D01*
X009031Y013131D01*
X009031Y013418D02*
X019940Y013418D01*
X019933Y013431D02*
X019957Y013390D01*
X019990Y013357D01*
X020031Y013333D01*
X020077Y013321D01*
X020921Y013321D01*
X020921Y013921D01*
X019921Y013921D01*
X019921Y013477D01*
X019933Y013431D01*
X019921Y013577D02*
X009030Y013577D01*
X008531Y013577D02*
X008371Y013577D01*
X008371Y013418D02*
X008531Y013418D01*
X008531Y013260D02*
X008371Y013260D01*
X008371Y013101D02*
X003231Y013101D01*
X003231Y012943D02*
X007871Y012943D01*
X007871Y012784D02*
X002731Y012784D01*
X002731Y012881D02*
X003231Y012881D01*
X003231Y013324D01*
X003218Y013370D01*
X003195Y013411D01*
X003161Y013445D01*
X003120Y013468D01*
X003074Y013481D01*
X002731Y013481D01*
X002731Y012881D01*
X002731Y012943D02*
X002571Y012943D01*
X002571Y013101D02*
X002731Y013101D01*
X002731Y013260D02*
X002571Y013260D01*
X002571Y013418D02*
X002731Y013418D01*
X003188Y013418D02*
X007871Y013418D01*
X007871Y013260D02*
X003231Y013260D01*
X003231Y012626D02*
X007871Y012626D01*
X007891Y012467D02*
X003231Y012467D01*
X002731Y012467D02*
X002571Y012467D01*
X002571Y012309D02*
X002731Y012309D01*
X002731Y012150D02*
X002571Y012150D01*
X002571Y012121D02*
X002571Y012721D01*
X002071Y012721D01*
X002071Y012277D01*
X002083Y012231D01*
X002107Y012190D01*
X002140Y012157D01*
X002181Y012133D01*
X002227Y012121D01*
X002571Y012121D01*
X002152Y012150D02*
X001171Y012150D01*
X001171Y011992D02*
X007937Y011992D01*
X007871Y011833D02*
X001171Y011833D01*
X001171Y011674D02*
X007871Y011674D01*
X007871Y011516D02*
X001171Y011516D01*
X001171Y011357D02*
X008371Y011357D01*
X007871Y011199D02*
X001171Y011199D01*
X001171Y011040D02*
X007871Y011040D01*
X007871Y010882D02*
X001171Y010882D01*
X000531Y010882D02*
X000351Y010882D01*
X000351Y011040D02*
X000531Y011040D01*
X000531Y011199D02*
X000351Y011199D01*
X000351Y011357D02*
X000531Y011357D01*
X000531Y011516D02*
X000351Y011516D01*
X000351Y011674D02*
X000531Y011674D01*
X000531Y011833D02*
X000351Y011833D01*
X000351Y011992D02*
X000531Y011992D01*
X000531Y012150D02*
X000351Y012150D01*
X000351Y012309D02*
X000531Y012309D01*
X000531Y012467D02*
X000351Y012467D01*
X000351Y012626D02*
X000531Y012626D01*
X000531Y012784D02*
X000351Y012784D01*
X000351Y012943D02*
X000531Y012943D01*
X000531Y013101D02*
X000351Y013101D01*
X000351Y013260D02*
X000531Y013260D01*
X000531Y013418D02*
X000351Y013418D01*
X000351Y013577D02*
X000531Y013577D01*
X000531Y013736D02*
X000351Y013736D01*
X000351Y013894D02*
X000531Y013894D01*
X000531Y014053D02*
X000351Y014053D01*
X000351Y014211D02*
X000531Y014211D01*
X000531Y014370D02*
X000351Y014370D01*
X000351Y014528D02*
X000531Y014528D01*
X000531Y014687D02*
X000351Y014687D01*
X000351Y014845D02*
X000531Y014845D01*
X000531Y015004D02*
X000351Y015004D01*
X000351Y015162D02*
X000531Y015162D01*
X000531Y015321D02*
X000351Y015321D01*
X000351Y015479D02*
X000531Y015479D01*
X000531Y015638D02*
X000351Y015638D01*
X000351Y015797D02*
X000531Y015797D01*
X000531Y015955D02*
X000351Y015955D01*
X000351Y016114D02*
X000531Y016114D01*
X000531Y016272D02*
X000351Y016272D01*
X000351Y016431D02*
X000531Y016431D01*
X000531Y016589D02*
X000351Y016589D01*
X000351Y016748D02*
X000531Y016748D01*
X000531Y016906D02*
X000351Y016906D01*
X000351Y017065D02*
X000531Y017065D01*
X000531Y017223D02*
X000351Y017223D01*
X000351Y017382D02*
X000531Y017382D01*
X000531Y017541D02*
X000351Y017541D01*
X000351Y017699D02*
X000531Y017699D01*
X000531Y017858D02*
X000351Y017858D01*
X000351Y018016D02*
X000531Y018016D01*
X000531Y018175D02*
X000351Y018175D01*
X000351Y018333D02*
X000531Y018333D01*
X000531Y018492D02*
X000351Y018492D01*
X000351Y018650D02*
X000531Y018650D01*
X000531Y018809D02*
X000351Y018809D01*
X000351Y018967D02*
X000531Y018967D01*
X000531Y019126D02*
X000351Y019126D01*
X000351Y019285D02*
X000531Y019285D01*
X000531Y019443D02*
X000351Y019443D01*
X000351Y019602D02*
X000531Y019602D01*
X000531Y019760D02*
X000351Y019760D01*
X000351Y019919D02*
X000531Y019919D01*
X000531Y020077D02*
X000351Y020077D01*
X000351Y020236D02*
X000531Y020236D01*
X000531Y020394D02*
X000351Y020394D01*
X000351Y020553D02*
X000531Y020553D01*
X000531Y020711D02*
X000351Y020711D01*
X000351Y020870D02*
X000531Y020870D01*
X000531Y021029D02*
X000351Y021029D01*
X000351Y021187D02*
X000531Y021187D01*
X000531Y021346D02*
X000351Y021346D01*
X000351Y021504D02*
X000531Y021504D01*
X000531Y021663D02*
X000351Y021663D01*
X000351Y021821D02*
X000531Y021821D01*
X000531Y021980D02*
X000351Y021980D01*
X000351Y022138D02*
X000531Y022138D01*
X000531Y022297D02*
X000351Y022297D01*
X000351Y022455D02*
X000531Y022455D01*
X000531Y022614D02*
X000351Y022614D01*
X000351Y022772D02*
X000531Y022772D01*
X000531Y022931D02*
X000351Y022931D01*
X000351Y023090D02*
X000531Y023090D01*
X000531Y023248D02*
X000351Y023248D01*
X000351Y023407D02*
X000531Y023407D01*
X000531Y023565D02*
X000351Y023565D01*
X000351Y023724D02*
X000531Y023724D01*
X000531Y023882D02*
X000351Y023882D01*
X000351Y024041D02*
X000531Y024041D01*
X000531Y024199D02*
X000351Y024199D01*
X000351Y024358D02*
X000531Y024358D01*
X000531Y024516D02*
X000351Y024516D01*
X000351Y024675D02*
X000531Y024675D01*
X000531Y024834D02*
X000351Y024834D01*
X000351Y024992D02*
X000531Y024992D01*
X000531Y025151D02*
X000351Y025151D01*
X000351Y025309D02*
X000531Y025309D01*
X000531Y025468D02*
X000351Y025468D01*
X000351Y025626D02*
X000531Y025626D01*
X000531Y025785D02*
X000351Y025785D01*
X000351Y025943D02*
X000531Y025943D01*
X000531Y026102D02*
X000351Y026102D01*
X000351Y026260D02*
X000531Y026260D01*
X000531Y026419D02*
X000351Y026419D01*
X000351Y026578D02*
X000531Y026578D01*
X000531Y026736D02*
X000351Y026736D01*
X000351Y026895D02*
X000531Y026895D01*
X000601Y027053D02*
X000351Y027053D01*
X000351Y027212D02*
X000759Y027212D01*
X000918Y027370D02*
X000351Y027370D01*
X000351Y027529D02*
X001031Y027529D01*
X000915Y027687D02*
X000351Y027687D01*
X000351Y027846D02*
X000915Y027846D01*
X000915Y028004D02*
X000351Y028004D01*
X000351Y028163D02*
X000915Y028163D01*
X000915Y028321D02*
X000351Y028321D01*
X000351Y028480D02*
X001004Y028480D01*
X001051Y028696D02*
X001006Y028709D01*
X000965Y028732D01*
X000931Y028766D01*
X000907Y028807D01*
X000895Y028853D01*
X000895Y029133D01*
X001293Y029133D01*
X001409Y029133D01*
X001409Y028696D01*
X001650Y028696D01*
X001696Y028709D01*
X001737Y028732D01*
X001770Y028766D01*
X001794Y028807D01*
X001806Y028853D01*
X001806Y029133D01*
X001409Y029133D01*
X001409Y029249D01*
X001806Y029249D01*
X001806Y029530D01*
X001794Y029576D01*
X001770Y029617D01*
X001737Y029650D01*
X001696Y029674D01*
X001650Y029686D01*
X001409Y029686D01*
X001409Y029249D01*
X001293Y029249D01*
X001293Y029133D01*
X001293Y028696D01*
X001051Y028696D01*
X000913Y028797D02*
X000351Y028797D01*
X000351Y028639D02*
X002360Y028639D01*
X001932Y028480D02*
X001698Y028480D01*
X001788Y028797D02*
X001856Y028797D01*
X001843Y028956D02*
X001806Y028956D01*
X001806Y029114D02*
X001843Y029114D01*
X001843Y029273D02*
X001806Y029273D01*
X001806Y029431D02*
X001843Y029431D01*
X001861Y029590D02*
X001786Y029590D01*
X001409Y029590D02*
X001293Y029590D01*
X001293Y029686D02*
X001293Y029249D01*
X000895Y029249D01*
X000895Y029530D01*
X000907Y029576D01*
X000931Y029617D01*
X000965Y029650D01*
X001006Y029674D01*
X001051Y029686D01*
X001293Y029686D01*
X001293Y029431D02*
X001409Y029431D01*
X001409Y029273D02*
X001293Y029273D01*
X001293Y029114D02*
X001409Y029114D01*
X001409Y028956D02*
X001293Y028956D01*
X001293Y028797D02*
X001409Y028797D01*
X000895Y028956D02*
X000351Y028956D01*
X000351Y029114D02*
X000895Y029114D01*
X000895Y029273D02*
X000351Y029273D01*
X000351Y029431D02*
X000895Y029431D01*
X000916Y029590D02*
X000351Y029590D01*
X000351Y029748D02*
X003421Y029748D01*
X003421Y029630D02*
X003806Y029630D01*
X003806Y029540D01*
X003421Y029540D01*
X003421Y028931D01*
X003424Y028921D01*
X003108Y028921D01*
X003108Y029573D01*
X003108Y029431D02*
X003421Y029431D01*
X003421Y029273D02*
X003108Y029273D01*
X003108Y029114D02*
X003421Y029114D01*
X003421Y028956D02*
X003108Y028956D01*
X003421Y029630D02*
X003421Y030239D01*
X003433Y030284D01*
X003457Y030325D01*
X003490Y030359D01*
X003531Y030383D01*
X003421Y030224D02*
X000351Y030224D01*
X000351Y030065D02*
X003421Y030065D01*
X003421Y029907D02*
X000351Y029907D01*
X000351Y030700D02*
X021851Y030700D01*
X021851Y030224D02*
X009707Y030224D01*
X009698Y030233D02*
X008935Y030233D01*
X008841Y030139D01*
X008841Y029062D01*
X008935Y028968D01*
X009698Y028968D01*
X009791Y029062D01*
X009791Y029201D01*
X009843Y029201D01*
X009860Y029184D01*
X009860Y029112D01*
X009921Y028965D01*
X010374Y028512D01*
X010521Y028451D01*
X010680Y028451D01*
X012619Y028451D01*
X012616Y028448D01*
X012593Y028406D01*
X012580Y028361D01*
X012580Y028119D01*
X012938Y028119D01*
X012938Y028082D01*
X012580Y028082D01*
X012580Y027841D01*
X012593Y027795D01*
X012616Y027754D01*
X012650Y027721D01*
X012691Y027697D01*
X012736Y027685D01*
X012841Y027685D01*
X012809Y027676D01*
X012768Y027652D01*
X012734Y027619D01*
X012711Y027578D01*
X012698Y027532D01*
X012698Y027351D01*
X013035Y027351D01*
X013035Y027351D01*
X012698Y027351D01*
X012698Y027170D01*
X012711Y027124D01*
X012734Y027083D01*
X012768Y027049D01*
X012809Y027026D01*
X012855Y027013D01*
X013036Y027013D01*
X013217Y027013D01*
X013263Y027026D01*
X013304Y027049D01*
X013337Y027083D01*
X013346Y027097D01*
X013346Y026854D01*
X013337Y026869D01*
X013304Y026902D01*
X013263Y026926D01*
X013217Y026938D01*
X013036Y026938D01*
X013036Y026601D01*
X013036Y026601D01*
X013036Y026938D01*
X012855Y026938D01*
X012809Y026926D01*
X012768Y026902D01*
X012734Y026869D01*
X012711Y026828D01*
X012698Y026782D01*
X012698Y026601D01*
X013035Y026601D01*
X013035Y026601D01*
X012698Y026601D01*
X012698Y026420D01*
X012711Y026374D01*
X012734Y026333D01*
X012768Y026299D01*
X012809Y026276D01*
X012855Y026263D01*
X013036Y026263D01*
X013217Y026263D01*
X013263Y026276D01*
X013304Y026299D01*
X013337Y026333D01*
X013343Y026343D01*
X013343Y026287D01*
X013371Y026221D01*
X013325Y026175D01*
X013325Y025491D01*
X013418Y025397D01*
X013669Y025397D01*
X014023Y025397D01*
X014141Y025397D01*
X014235Y025491D01*
X014235Y026175D01*
X014141Y026269D01*
X014100Y026269D01*
X014100Y026298D01*
X014051Y026415D01*
X013983Y026483D01*
X013983Y026531D01*
X013986Y026537D01*
X013986Y027287D01*
X013986Y027533D01*
X014016Y027563D01*
X014064Y027681D01*
X014064Y027761D01*
X014101Y027798D01*
X014101Y028403D01*
X014064Y028440D01*
X014064Y028531D01*
X014156Y028531D01*
X014156Y027037D01*
X014204Y026919D01*
X014294Y026829D01*
X014544Y026579D01*
X014662Y026531D01*
X014789Y026531D01*
X015343Y026531D01*
X015656Y026218D01*
X015656Y025162D01*
X015704Y025044D01*
X015794Y024954D01*
X015912Y024906D01*
X016039Y024906D01*
X016157Y024954D01*
X016247Y025044D01*
X016296Y025162D01*
X016296Y026287D01*
X016296Y026414D01*
X016247Y026532D01*
X015747Y027032D01*
X015657Y027122D01*
X015539Y027171D01*
X014858Y027171D01*
X014796Y027233D01*
X014796Y028662D01*
X014796Y028789D01*
X014747Y028907D01*
X014532Y029122D01*
X014414Y029171D01*
X014287Y029171D01*
X013971Y029171D01*
X013952Y029190D01*
X013805Y029251D01*
X011921Y029251D01*
X011924Y029256D01*
X011936Y029301D01*
X011936Y029543D01*
X011499Y029543D01*
X011499Y029659D01*
X011383Y029659D01*
X011383Y029543D01*
X010946Y029543D01*
X010946Y029301D01*
X010959Y029256D01*
X010962Y029251D01*
X010766Y029251D01*
X010735Y029282D01*
X010735Y029943D01*
X010641Y030036D01*
X009879Y030036D01*
X009843Y030001D01*
X009791Y030001D01*
X009791Y030139D01*
X009698Y030233D01*
X009791Y030065D02*
X021851Y030065D01*
X021851Y029907D02*
X011934Y029907D01*
X011936Y029900D02*
X011924Y029946D01*
X011900Y029987D01*
X011867Y030020D01*
X011826Y030044D01*
X011780Y030056D01*
X011499Y030056D01*
X011499Y029659D01*
X011936Y029659D01*
X011936Y029900D01*
X011936Y029748D02*
X021851Y029748D01*
X021851Y029590D02*
X011499Y029590D01*
X011383Y029590D02*
X010735Y029590D01*
X010735Y029748D02*
X010946Y029748D01*
X010946Y029659D02*
X010946Y029900D01*
X010959Y029946D01*
X010982Y029987D01*
X011016Y030020D01*
X011057Y030044D01*
X011103Y030056D01*
X011383Y030056D01*
X011383Y029659D01*
X010946Y029659D01*
X010946Y029431D02*
X010735Y029431D01*
X010744Y029273D02*
X010954Y029273D01*
X010948Y029907D02*
X010735Y029907D01*
X011383Y029907D02*
X011499Y029907D01*
X011499Y029748D02*
X011383Y029748D01*
X011936Y029431D02*
X021851Y029431D01*
X021851Y029273D02*
X011929Y029273D01*
X012580Y028321D02*
X008137Y028321D01*
X008296Y028480D02*
X010451Y028480D01*
X010247Y028639D02*
X008454Y028639D01*
X008532Y028797D02*
X010089Y028797D01*
X009930Y028956D02*
X008535Y028956D01*
X008610Y029114D02*
X008841Y029114D01*
X008841Y029273D02*
X008610Y029273D01*
X008610Y029431D02*
X008841Y029431D01*
X008841Y029590D02*
X008610Y029590D01*
X008610Y029748D02*
X008841Y029748D01*
X008841Y029907D02*
X008610Y029907D01*
X008610Y030065D02*
X008841Y030065D01*
X008926Y030224D02*
X008526Y030224D01*
X007745Y030224D02*
X007261Y030224D01*
X007261Y030065D02*
X007660Y030065D01*
X006532Y028797D02*
X006171Y028797D01*
X006091Y028639D02*
X006823Y028639D01*
X006664Y028480D02*
X005933Y028480D01*
X006252Y028321D02*
X006450Y028321D01*
X006441Y028163D02*
X006261Y028163D01*
X006261Y028004D02*
X006441Y028004D01*
X006441Y027846D02*
X006261Y027846D01*
X006261Y027687D02*
X006441Y027687D01*
X006441Y027529D02*
X006261Y027529D01*
X006261Y027370D02*
X006441Y027370D01*
X006441Y027212D02*
X006261Y027212D01*
X006261Y027053D02*
X006441Y027053D01*
X006466Y026895D02*
X006235Y026895D01*
X005864Y026260D02*
X001171Y026260D01*
X001171Y026102D02*
X011772Y026102D01*
X011614Y026260D02*
X007963Y026260D01*
X008122Y026419D02*
X011455Y026419D01*
X011343Y026531D02*
X012406Y025468D01*
X012406Y025162D01*
X012454Y025044D01*
X012544Y024954D01*
X012662Y024906D01*
X012789Y024906D01*
X012907Y024954D01*
X012997Y025044D01*
X013046Y025162D01*
X013046Y025537D01*
X013046Y025664D01*
X012997Y025782D01*
X011747Y027032D01*
X011657Y027122D01*
X011601Y027145D01*
X011780Y027145D01*
X011826Y027157D01*
X011867Y027181D01*
X011900Y027215D01*
X011924Y027256D01*
X011936Y027301D01*
X011936Y027543D01*
X011499Y027543D01*
X011499Y027659D01*
X011383Y027659D01*
X011383Y027543D01*
X010946Y027543D01*
X010946Y027301D01*
X010959Y027256D01*
X010982Y027215D01*
X011016Y027181D01*
X011034Y027171D01*
X010733Y027171D01*
X010690Y027214D01*
X010735Y027259D01*
X010735Y027943D01*
X010641Y028036D01*
X009879Y028036D01*
X009791Y027949D01*
X009791Y028139D01*
X009698Y028233D01*
X008935Y028233D01*
X008841Y028139D01*
X008841Y027062D01*
X008935Y026968D01*
X009698Y026968D01*
X009791Y027062D01*
X009791Y027253D01*
X009879Y027165D01*
X009940Y027165D01*
X009940Y027128D01*
X009989Y027010D01*
X010419Y026579D01*
X010537Y026531D01*
X010664Y026531D01*
X011343Y026531D01*
X011726Y027053D02*
X012764Y027053D01*
X012760Y026895D02*
X011884Y026895D01*
X012043Y026736D02*
X012698Y026736D01*
X012698Y026578D02*
X012202Y026578D01*
X012360Y026419D02*
X012699Y026419D01*
X012519Y026260D02*
X013354Y026260D01*
X013325Y026102D02*
X012677Y026102D01*
X012836Y025943D02*
X013325Y025943D01*
X013325Y025785D02*
X012994Y025785D01*
X013046Y025626D02*
X013325Y025626D01*
X013348Y025468D02*
X013046Y025468D01*
X013046Y025309D02*
X015656Y025309D01*
X015661Y025151D02*
X013041Y025151D01*
X012945Y024992D02*
X015757Y024992D01*
X015913Y024516D02*
X019941Y024516D01*
X019941Y024675D02*
X009003Y024675D01*
X008967Y024711D02*
X009061Y024617D01*
X009061Y024421D01*
X012773Y024421D01*
X012773Y024502D01*
X012867Y024595D01*
X013551Y024595D01*
X013645Y024502D01*
X013645Y024384D01*
X013645Y023818D01*
X013645Y023700D01*
X013551Y023606D01*
X012867Y023606D01*
X012773Y023700D01*
X012773Y023781D01*
X009061Y023781D01*
X009061Y023684D01*
X008967Y023591D01*
X008761Y023591D01*
X008761Y023084D01*
X008667Y022991D01*
X007784Y022991D01*
X007134Y022991D01*
X007041Y023084D01*
X007041Y024517D01*
X007134Y024611D01*
X007741Y024611D01*
X007741Y024617D01*
X007834Y024711D01*
X008967Y024711D01*
X009061Y024516D02*
X012788Y024516D01*
X012507Y024992D02*
X001171Y024992D01*
X001171Y024834D02*
X003079Y024834D01*
X003090Y024845D02*
X003057Y024811D01*
X003033Y024770D01*
X003021Y024724D01*
X003021Y024381D01*
X003621Y024381D01*
X003621Y024881D01*
X003177Y024881D01*
X003131Y024868D01*
X003090Y024845D01*
X003021Y024675D02*
X001171Y024675D01*
X001171Y024516D02*
X003021Y024516D01*
X003021Y024221D02*
X003021Y023877D01*
X003033Y023831D01*
X003057Y023790D01*
X003090Y023757D01*
X003131Y023733D01*
X003177Y023721D01*
X003621Y023721D01*
X003621Y024221D01*
X003021Y024221D01*
X003021Y024199D02*
X001171Y024199D01*
X001171Y024041D02*
X003021Y024041D01*
X003021Y023882D02*
X001171Y023882D01*
X001171Y023724D02*
X003166Y023724D01*
X003120Y023568D02*
X003074Y023581D01*
X002731Y023581D01*
X002731Y022981D01*
X002571Y022981D01*
X002571Y023581D01*
X002227Y023581D01*
X002181Y023568D01*
X002140Y023545D01*
X002107Y023511D01*
X002083Y023470D01*
X002071Y023424D01*
X002071Y022981D01*
X002571Y022981D01*
X002571Y022821D01*
X002731Y022821D01*
X002731Y022981D01*
X003231Y022981D01*
X003231Y023424D01*
X003218Y023470D01*
X003195Y023511D01*
X003161Y023545D01*
X003120Y023568D01*
X003126Y023565D02*
X007041Y023565D01*
X007041Y023407D02*
X003231Y023407D01*
X003231Y023248D02*
X007041Y023248D01*
X007041Y023090D02*
X003231Y023090D01*
X003231Y022821D02*
X002731Y022821D01*
X002731Y022221D01*
X003074Y022221D01*
X003120Y022233D01*
X003161Y022257D01*
X003195Y022290D01*
X003218Y022331D01*
X003231Y022377D01*
X003231Y022821D01*
X003231Y022772D02*
X012406Y022772D01*
X012406Y022733D02*
X011829Y022157D01*
X011781Y022039D01*
X011781Y021912D01*
X011781Y019537D01*
X011829Y019419D01*
X011919Y019329D01*
X012169Y019079D01*
X012287Y019031D01*
X012414Y019031D01*
X014789Y019031D01*
X014907Y019079D01*
X014997Y019169D01*
X015307Y019480D01*
X015356Y019597D01*
X015356Y019724D01*
X015356Y019804D01*
X015412Y019781D01*
X016037Y019781D01*
X016164Y019781D01*
X016282Y019829D01*
X016657Y020204D01*
X016747Y020294D01*
X016796Y020412D01*
X016796Y022287D01*
X016796Y022414D01*
X016747Y022532D01*
X016157Y023122D01*
X016039Y023171D01*
X015912Y023171D01*
X015794Y023122D01*
X015704Y023032D01*
X015656Y022914D01*
X015656Y022787D01*
X015704Y022669D01*
X016156Y022218D01*
X016156Y020608D01*
X015968Y020421D01*
X015412Y020421D01*
X015356Y020397D01*
X015356Y020597D01*
X015364Y020583D01*
X015398Y020549D01*
X015439Y020526D01*
X015485Y020513D01*
X015666Y020513D01*
X015847Y020513D01*
X015893Y020526D01*
X015934Y020549D01*
X015967Y020583D01*
X015991Y020624D01*
X016003Y020670D01*
X016003Y020851D01*
X016003Y021032D01*
X015991Y021078D01*
X015967Y021119D01*
X015934Y021152D01*
X015893Y021176D01*
X015847Y021188D01*
X015666Y021188D01*
X015666Y020851D01*
X016003Y020851D01*
X015666Y020851D01*
X015666Y020851D01*
X015666Y020851D01*
X015666Y021188D01*
X015485Y021188D01*
X015439Y021176D01*
X015398Y021152D01*
X015364Y021119D01*
X015344Y021084D01*
X015316Y021112D01*
X015316Y021340D01*
X015344Y021368D01*
X015364Y021333D01*
X015398Y021299D01*
X015439Y021276D01*
X015485Y021263D01*
X015666Y021263D01*
X015847Y021263D01*
X015893Y021276D01*
X015934Y021299D01*
X015967Y021333D01*
X015991Y021374D01*
X016003Y021420D01*
X016003Y021601D01*
X016003Y021782D01*
X015991Y021828D01*
X015967Y021869D01*
X015934Y021902D01*
X015893Y021926D01*
X015847Y021938D01*
X015666Y021938D01*
X015666Y021601D01*
X016003Y021601D01*
X015666Y021601D01*
X015666Y021601D01*
X015666Y021601D01*
X015666Y021938D01*
X015485Y021938D01*
X015439Y021926D01*
X015398Y021902D01*
X015364Y021869D01*
X015344Y021834D01*
X015316Y021862D01*
X015316Y021909D01*
X015306Y021933D01*
X015323Y021933D01*
X015416Y022027D01*
X015416Y022710D01*
X015323Y022804D01*
X015165Y022804D01*
X014811Y022804D01*
X014521Y022804D01*
X014427Y022710D01*
X014427Y022027D01*
X014521Y021933D01*
X014642Y021933D01*
X014642Y021912D01*
X014684Y021809D01*
X014718Y021775D01*
X014718Y021377D01*
X014756Y021340D01*
X014756Y021112D01*
X014718Y021075D01*
X014718Y020921D01*
X014716Y020914D01*
X014716Y020399D01*
X014664Y020421D01*
X014084Y020421D01*
X014064Y020440D01*
X014064Y020521D01*
X014016Y020638D01*
X013986Y020668D01*
X013986Y020914D01*
X013986Y021664D01*
X013983Y021670D01*
X013983Y021718D01*
X014051Y021786D01*
X014100Y021904D01*
X014100Y021933D01*
X014181Y021933D01*
X014275Y022027D01*
X014275Y022710D01*
X014181Y022804D01*
X014023Y022804D01*
X013669Y022804D01*
X013418Y022804D01*
X013325Y022710D01*
X013325Y022027D01*
X013371Y021981D01*
X013343Y021914D01*
X013343Y021858D01*
X013337Y021869D01*
X013304Y021902D01*
X013263Y021926D01*
X013217Y021938D01*
X013036Y021938D01*
X013036Y021601D01*
X013036Y021601D01*
X013036Y021938D01*
X012855Y021938D01*
X012809Y021926D01*
X012768Y021902D01*
X012734Y021869D01*
X012711Y021828D01*
X012698Y021782D01*
X012698Y021601D01*
X013035Y021601D01*
X013035Y021601D01*
X012698Y021601D01*
X012698Y021420D01*
X012711Y021374D01*
X012734Y021333D01*
X012768Y021299D01*
X012809Y021276D01*
X012855Y021263D01*
X013036Y021263D01*
X013217Y021263D01*
X013263Y021276D01*
X013304Y021299D01*
X013337Y021333D01*
X013346Y021347D01*
X013346Y021104D01*
X013337Y021119D01*
X013304Y021152D01*
X013263Y021176D01*
X013217Y021188D01*
X013036Y021188D01*
X013036Y020851D01*
X013036Y020851D01*
X013036Y021188D01*
X012855Y021188D01*
X012809Y021176D01*
X012768Y021152D01*
X012734Y021119D01*
X012711Y021078D01*
X012698Y021032D01*
X012698Y020851D01*
X013035Y020851D01*
X013035Y020851D01*
X012698Y020851D01*
X012698Y020670D01*
X012711Y020624D01*
X012734Y020583D01*
X012768Y020549D01*
X012809Y020526D01*
X012841Y020517D01*
X012736Y020517D01*
X012691Y020505D01*
X012650Y020481D01*
X012616Y020448D01*
X012593Y020406D01*
X012580Y020361D01*
X012580Y020119D01*
X012938Y020119D01*
X012938Y020082D01*
X012580Y020082D01*
X012580Y019841D01*
X012593Y019795D01*
X012616Y019754D01*
X012650Y019721D01*
X012691Y019697D01*
X012736Y019685D01*
X012939Y019685D01*
X012939Y020082D01*
X012976Y020082D01*
X012976Y020119D01*
X013334Y020119D01*
X013334Y020361D01*
X013322Y020406D01*
X013298Y020448D01*
X013264Y020481D01*
X013223Y020505D01*
X013191Y020513D01*
X013217Y020513D01*
X013263Y020526D01*
X013304Y020549D01*
X013337Y020583D01*
X013346Y020597D01*
X013346Y020472D01*
X013388Y020371D01*
X013388Y019798D01*
X013481Y019705D01*
X014008Y019705D01*
X014084Y019781D01*
X014664Y019781D01*
X014716Y019802D01*
X014716Y019793D01*
X014593Y019671D01*
X012483Y019671D01*
X012421Y019733D01*
X012421Y021843D01*
X012907Y022329D01*
X012997Y022419D01*
X013046Y022537D01*
X013046Y022914D01*
X012997Y023032D01*
X012907Y023122D01*
X012789Y023171D01*
X012662Y023171D01*
X012544Y023122D01*
X012454Y023032D01*
X012406Y022914D01*
X012406Y022733D01*
X012286Y022614D02*
X003231Y022614D01*
X003231Y022455D02*
X012128Y022455D01*
X011969Y022297D02*
X008958Y022297D01*
X008961Y022295D02*
X008920Y022318D01*
X008874Y022331D01*
X008531Y022331D01*
X008531Y021731D01*
X008371Y021731D01*
X008371Y022331D01*
X008027Y022331D01*
X007981Y022318D01*
X007940Y022295D01*
X007907Y022261D01*
X007883Y022220D01*
X007871Y022174D01*
X007871Y021731D01*
X008371Y021731D01*
X008371Y021571D01*
X008531Y021571D01*
X008531Y021731D01*
X009031Y021731D01*
X009031Y022174D01*
X009018Y022220D01*
X008995Y022261D01*
X008961Y022295D01*
X009031Y022138D02*
X011822Y022138D01*
X011781Y021980D02*
X009031Y021980D01*
X009031Y021821D02*
X011781Y021821D01*
X011781Y021663D02*
X008531Y021663D01*
X008531Y021571D02*
X009031Y021571D01*
X009031Y021127D01*
X009018Y021081D01*
X008995Y021040D01*
X008961Y021007D01*
X008920Y020983D01*
X008874Y020971D01*
X008531Y020971D01*
X008531Y021571D01*
X008531Y021504D02*
X008371Y021504D01*
X008371Y021571D02*
X008371Y020971D01*
X008027Y020971D01*
X007981Y020983D01*
X007940Y021007D01*
X007907Y021040D01*
X007883Y021081D01*
X007871Y021127D01*
X007871Y021571D01*
X008371Y021571D01*
X008371Y021663D02*
X001171Y021663D01*
X001171Y021821D02*
X007871Y021821D01*
X007871Y021980D02*
X001171Y021980D01*
X001171Y022138D02*
X007871Y022138D01*
X007944Y022297D02*
X003199Y022297D01*
X002731Y022297D02*
X002571Y022297D01*
X002571Y022221D02*
X002571Y022821D01*
X002071Y022821D01*
X002071Y022377D01*
X002083Y022331D01*
X002107Y022290D01*
X002140Y022257D01*
X002181Y022233D01*
X002227Y022221D01*
X002571Y022221D01*
X002571Y022455D02*
X002731Y022455D01*
X002731Y022614D02*
X002571Y022614D01*
X002571Y022772D02*
X002731Y022772D01*
X002731Y022931D02*
X012413Y022931D01*
X012512Y023090D02*
X008761Y023090D01*
X008761Y023248D02*
X019941Y023248D01*
X019941Y023090D02*
X016190Y023090D01*
X016348Y022931D02*
X019921Y022931D01*
X019921Y022772D02*
X016507Y022772D01*
X016665Y022614D02*
X019921Y022614D01*
X019921Y022421D02*
X019921Y021977D01*
X019933Y021931D01*
X019957Y021890D01*
X019990Y021857D01*
X020031Y021833D01*
X020077Y021821D01*
X020921Y021821D01*
X020921Y022421D01*
X019921Y022421D01*
X019921Y022297D02*
X016796Y022297D01*
X016796Y022138D02*
X019921Y022138D01*
X019921Y021980D02*
X016796Y021980D01*
X016796Y021821D02*
X020075Y021821D01*
X020921Y021821D02*
X021081Y021821D01*
X021081Y021980D02*
X020921Y021980D01*
X020921Y022138D02*
X021081Y022138D01*
X021081Y022297D02*
X020921Y022297D01*
X020921Y022455D02*
X016779Y022455D01*
X016156Y022138D02*
X015416Y022138D01*
X015416Y022297D02*
X016077Y022297D01*
X015919Y022455D02*
X015416Y022455D01*
X015416Y022614D02*
X015760Y022614D01*
X015662Y022772D02*
X015354Y022772D01*
X015663Y022931D02*
X013039Y022931D01*
X013046Y022772D02*
X013387Y022772D01*
X013325Y022614D02*
X013046Y022614D01*
X013012Y022455D02*
X013325Y022455D01*
X013325Y022297D02*
X012874Y022297D01*
X012716Y022138D02*
X013325Y022138D01*
X013370Y021980D02*
X012557Y021980D01*
X012421Y021821D02*
X012709Y021821D01*
X012698Y021663D02*
X012421Y021663D01*
X012421Y021504D02*
X012698Y021504D01*
X012727Y021346D02*
X012421Y021346D01*
X012421Y021187D02*
X012850Y021187D01*
X013036Y021187D02*
X013036Y021187D01*
X013036Y021263D02*
X013036Y021600D01*
X013036Y021600D01*
X013036Y021263D01*
X013036Y021346D02*
X013036Y021346D01*
X013036Y021504D02*
X013036Y021504D01*
X013036Y021663D02*
X013036Y021663D01*
X013036Y021821D02*
X013036Y021821D01*
X013345Y021346D02*
X013346Y021346D01*
X013346Y021187D02*
X013221Y021187D01*
X013036Y021029D02*
X013036Y021029D01*
X013036Y020870D02*
X013036Y020870D01*
X013307Y020553D02*
X013346Y020553D01*
X013325Y020394D02*
X013378Y020394D01*
X013388Y020236D02*
X013334Y020236D01*
X013334Y020082D02*
X012976Y020082D01*
X012976Y019685D01*
X013178Y019685D01*
X013223Y019697D01*
X013264Y019721D01*
X013298Y019754D01*
X013322Y019795D01*
X013334Y019841D01*
X013334Y020082D01*
X013334Y020077D02*
X013388Y020077D01*
X013388Y019919D02*
X013334Y019919D01*
X013301Y019760D02*
X013426Y019760D01*
X012976Y019760D02*
X012939Y019760D01*
X012939Y019919D02*
X012976Y019919D01*
X012976Y020077D02*
X012939Y020077D01*
X012580Y020077D02*
X012421Y020077D01*
X012421Y019919D02*
X012580Y019919D01*
X012613Y019760D02*
X012421Y019760D01*
X012421Y020236D02*
X012580Y020236D01*
X012589Y020394D02*
X012421Y020394D01*
X012421Y020553D02*
X012764Y020553D01*
X012698Y020711D02*
X012421Y020711D01*
X012421Y020870D02*
X012698Y020870D01*
X012698Y021029D02*
X012421Y021029D01*
X011781Y021029D02*
X008983Y021029D01*
X009031Y021187D02*
X011781Y021187D01*
X011781Y021346D02*
X009031Y021346D01*
X009031Y021504D02*
X011781Y021504D01*
X011781Y020870D02*
X001171Y020870D01*
X001171Y021029D02*
X007918Y021029D01*
X007871Y021187D02*
X001171Y021187D01*
X001171Y021346D02*
X007871Y021346D01*
X007871Y021504D02*
X001171Y021504D01*
X001171Y020711D02*
X011781Y020711D01*
X011781Y020553D02*
X001171Y020553D01*
X001171Y020394D02*
X007876Y020394D01*
X007871Y020374D02*
X007871Y019931D01*
X008371Y019931D01*
X008371Y020531D01*
X008027Y020531D01*
X007981Y020518D01*
X007940Y020495D01*
X007907Y020461D01*
X007883Y020420D01*
X007871Y020374D01*
X007871Y020236D02*
X001171Y020236D01*
X001171Y020077D02*
X007871Y020077D01*
X007871Y019771D02*
X007871Y019327D01*
X007883Y019281D01*
X007907Y019240D01*
X007940Y019207D01*
X007981Y019183D01*
X008027Y019171D01*
X008371Y019171D01*
X008371Y019771D01*
X008531Y019771D01*
X008531Y019931D01*
X008371Y019931D01*
X008371Y019771D01*
X007871Y019771D01*
X007871Y019760D02*
X001171Y019760D01*
X001171Y019602D02*
X007871Y019602D01*
X007871Y019443D02*
X001171Y019443D01*
X001171Y019285D02*
X007882Y019285D01*
X008027Y018831D02*
X007981Y018818D01*
X007940Y018795D01*
X007907Y018761D01*
X007883Y018720D01*
X007871Y018674D01*
X007871Y018231D01*
X008371Y018231D01*
X008371Y018831D01*
X008027Y018831D01*
X007965Y018809D02*
X003231Y018809D01*
X003231Y018924D02*
X003218Y018970D01*
X003195Y019011D01*
X003161Y019045D01*
X003120Y019068D01*
X003074Y019081D01*
X002731Y019081D01*
X002731Y018481D01*
X002571Y018481D01*
X002571Y019081D01*
X002227Y019081D01*
X002181Y019068D01*
X002140Y019045D01*
X002107Y019011D01*
X002083Y018970D01*
X002071Y018924D01*
X002071Y018481D01*
X002571Y018481D01*
X002571Y018321D01*
X002731Y018321D01*
X002731Y018481D01*
X003231Y018481D01*
X003231Y018924D01*
X003219Y018967D02*
X021851Y018967D01*
X021851Y018809D02*
X008937Y018809D01*
X008920Y018818D02*
X008874Y018831D01*
X008531Y018831D01*
X008531Y018231D01*
X008371Y018231D01*
X008371Y018071D01*
X008531Y018071D01*
X008531Y018231D01*
X009031Y018231D01*
X009031Y018674D01*
X009018Y018720D01*
X008995Y018761D01*
X008961Y018795D01*
X008920Y018818D01*
X009031Y018650D02*
X021851Y018650D01*
X021851Y018492D02*
X009031Y018492D01*
X009031Y018333D02*
X021851Y018333D01*
X021851Y018175D02*
X008531Y018175D01*
X008531Y018071D02*
X009031Y018071D01*
X009031Y017627D01*
X009018Y017581D01*
X008995Y017540D01*
X008961Y017507D01*
X008920Y017483D01*
X008874Y017471D01*
X008531Y017471D01*
X008531Y018071D01*
X008531Y018016D02*
X008371Y018016D01*
X008371Y018071D02*
X008371Y017471D01*
X008027Y017471D01*
X007981Y017483D01*
X007940Y017507D01*
X007907Y017540D01*
X007883Y017581D01*
X007871Y017627D01*
X007871Y018071D01*
X008371Y018071D01*
X008371Y018175D02*
X003231Y018175D01*
X003231Y018321D02*
X002731Y018321D01*
X002731Y017721D01*
X003074Y017721D01*
X003120Y017733D01*
X003161Y017757D01*
X003195Y017790D01*
X003218Y017831D01*
X003231Y017877D01*
X003231Y018321D01*
X003231Y018492D02*
X007871Y018492D01*
X007871Y018650D02*
X003231Y018650D01*
X002731Y018650D02*
X002571Y018650D01*
X002571Y018492D02*
X002731Y018492D01*
X002731Y018333D02*
X007871Y018333D01*
X007871Y018016D02*
X003231Y018016D01*
X003226Y017858D02*
X007871Y017858D01*
X007871Y017699D02*
X001171Y017699D01*
X001171Y017541D02*
X007907Y017541D01*
X008371Y017541D02*
X008531Y017541D01*
X008531Y017699D02*
X008371Y017699D01*
X008371Y017858D02*
X008531Y017858D01*
X008531Y018333D02*
X008371Y018333D01*
X008371Y018492D02*
X008531Y018492D01*
X008531Y018650D02*
X008371Y018650D01*
X008371Y018809D02*
X008531Y018809D01*
X008531Y019171D02*
X008874Y019171D01*
X008920Y019183D01*
X008961Y019207D01*
X008995Y019240D01*
X009018Y019281D01*
X009031Y019327D01*
X009031Y019771D01*
X008531Y019771D01*
X008531Y019171D01*
X008531Y019285D02*
X008371Y019285D01*
X008371Y019443D02*
X008531Y019443D01*
X008531Y019602D02*
X008371Y019602D01*
X008371Y019760D02*
X008531Y019760D01*
X008531Y019919D02*
X011781Y019919D01*
X011781Y020077D02*
X009031Y020077D01*
X009031Y019931D02*
X009031Y020374D01*
X009018Y020420D01*
X008995Y020461D01*
X008961Y020495D01*
X008920Y020518D01*
X008874Y020531D01*
X008531Y020531D01*
X008531Y019931D01*
X009031Y019931D01*
X009031Y019760D02*
X011781Y019760D01*
X011781Y019602D02*
X009031Y019602D01*
X009031Y019443D02*
X011820Y019443D01*
X011964Y019285D02*
X009019Y019285D01*
X008371Y019919D02*
X001171Y019919D01*
X001171Y019126D02*
X012123Y019126D01*
X011781Y020236D02*
X009031Y020236D01*
X009025Y020394D02*
X011781Y020394D01*
X013986Y020711D02*
X014716Y020711D01*
X014716Y020553D02*
X014051Y020553D01*
X013986Y020870D02*
X014716Y020870D01*
X014718Y021029D02*
X013986Y021029D01*
X013986Y021187D02*
X014756Y021187D01*
X014750Y021346D02*
X013986Y021346D01*
X013986Y021504D02*
X014718Y021504D01*
X014718Y021663D02*
X013986Y021663D01*
X014066Y021821D02*
X014679Y021821D01*
X014474Y021980D02*
X014228Y021980D01*
X014275Y022138D02*
X014427Y022138D01*
X014427Y022297D02*
X014275Y022297D01*
X014275Y022455D02*
X014427Y022455D01*
X014427Y022614D02*
X014275Y022614D01*
X014212Y022772D02*
X014489Y022772D01*
X015057Y023724D02*
X013645Y023724D01*
X013645Y023882D02*
X015057Y023882D01*
X015057Y024041D02*
X013645Y024041D01*
X013645Y024199D02*
X015057Y024199D01*
X015057Y024358D02*
X013645Y024358D01*
X013630Y024516D02*
X015072Y024516D01*
X015165Y025397D02*
X014678Y025397D01*
X014560Y025397D01*
X014466Y025491D01*
X014466Y026175D01*
X014560Y026269D01*
X014662Y026269D01*
X014675Y026276D01*
X014721Y026289D01*
X014913Y026289D01*
X014913Y025901D01*
X014930Y025901D01*
X014930Y026289D01*
X015123Y026289D01*
X015168Y026276D01*
X015182Y026269D01*
X015283Y026269D01*
X015377Y026175D01*
X015377Y025491D01*
X015283Y025397D01*
X015165Y025397D01*
X015353Y025468D02*
X015656Y025468D01*
X015656Y025626D02*
X015377Y025626D01*
X015377Y025785D02*
X015656Y025785D01*
X015656Y025943D02*
X015377Y025943D01*
X015377Y026102D02*
X015656Y026102D01*
X015614Y026260D02*
X015291Y026260D01*
X015455Y026419D02*
X014048Y026419D01*
X013986Y026578D02*
X014549Y026578D01*
X014388Y026736D02*
X013986Y026736D01*
X013986Y026895D02*
X014229Y026895D01*
X014156Y027053D02*
X013986Y027053D01*
X013986Y027212D02*
X014156Y027212D01*
X014156Y027370D02*
X013986Y027370D01*
X013986Y027529D02*
X014156Y027529D01*
X014156Y027687D02*
X014064Y027687D01*
X014101Y027846D02*
X014156Y027846D01*
X014156Y028004D02*
X014101Y028004D01*
X014101Y028163D02*
X014156Y028163D01*
X014156Y028321D02*
X014101Y028321D01*
X014064Y028480D02*
X014156Y028480D01*
X014796Y028480D02*
X021851Y028480D01*
X021851Y028321D02*
X014796Y028321D01*
X014796Y028163D02*
X021851Y028163D01*
X021851Y028004D02*
X014796Y028004D01*
X014796Y027846D02*
X021851Y027846D01*
X021851Y027687D02*
X014796Y027687D01*
X014796Y027529D02*
X021851Y027529D01*
X021851Y027370D02*
X014796Y027370D01*
X014817Y027212D02*
X021851Y027212D01*
X021851Y027053D02*
X015726Y027053D01*
X015884Y026895D02*
X021851Y026895D01*
X021851Y026736D02*
X016043Y026736D01*
X016202Y026578D02*
X021851Y026578D01*
X021851Y026419D02*
X016294Y026419D01*
X016296Y026260D02*
X019930Y026260D01*
X019921Y026102D02*
X016296Y026102D01*
X016296Y025943D02*
X019921Y025943D01*
X019921Y025785D02*
X016296Y025785D01*
X016296Y025626D02*
X020921Y025626D01*
X020921Y025785D02*
X021081Y025785D01*
X021081Y025943D02*
X020921Y025943D01*
X020921Y026102D02*
X021081Y026102D01*
X021081Y026260D02*
X020921Y026260D01*
X019921Y025468D02*
X016296Y025468D01*
X016296Y025309D02*
X019921Y025309D01*
X019928Y025151D02*
X016291Y025151D01*
X016195Y024992D02*
X019941Y024992D01*
X019941Y024834D02*
X006823Y024834D01*
X006811Y024845D02*
X006770Y024868D01*
X006724Y024881D01*
X006281Y024881D01*
X006281Y024381D01*
X006121Y024381D01*
X006121Y024881D01*
X005677Y024881D01*
X005631Y024868D01*
X005590Y024845D01*
X005557Y024811D01*
X005533Y024770D01*
X005521Y024724D01*
X005521Y024381D01*
X006121Y024381D01*
X006121Y024221D01*
X005521Y024221D01*
X005521Y023877D01*
X005533Y023831D01*
X005557Y023790D01*
X005590Y023757D01*
X005631Y023733D01*
X005677Y023721D01*
X006121Y023721D01*
X006121Y024221D01*
X006281Y024221D01*
X006281Y024381D01*
X006881Y024381D01*
X006881Y024724D01*
X006868Y024770D01*
X006845Y024811D01*
X006811Y024845D01*
X006881Y024675D02*
X007799Y024675D01*
X007041Y024516D02*
X006881Y024516D01*
X007041Y024358D02*
X006281Y024358D01*
X006281Y024221D02*
X006881Y024221D01*
X006881Y023877D01*
X006868Y023831D01*
X006845Y023790D01*
X006811Y023757D01*
X006770Y023733D01*
X006724Y023721D01*
X006281Y023721D01*
X006281Y024221D01*
X006281Y024199D02*
X006121Y024199D01*
X006121Y024041D02*
X006281Y024041D01*
X006281Y023882D02*
X006121Y023882D01*
X006121Y023724D02*
X006281Y023724D01*
X006735Y023724D02*
X007041Y023724D01*
X007041Y023882D02*
X006881Y023882D01*
X006881Y024041D02*
X007041Y024041D01*
X007041Y024199D02*
X006881Y024199D01*
X006281Y024516D02*
X006121Y024516D01*
X006121Y024358D02*
X003781Y024358D01*
X003781Y024381D02*
X003781Y024221D01*
X004381Y024221D01*
X004381Y023877D01*
X004368Y023831D01*
X004345Y023790D01*
X004311Y023757D01*
X004270Y023733D01*
X004224Y023721D01*
X003781Y023721D01*
X003781Y024221D01*
X003621Y024221D01*
X003621Y024381D01*
X003781Y024381D01*
X003781Y024881D01*
X004224Y024881D01*
X004270Y024868D01*
X004311Y024845D01*
X004345Y024811D01*
X004368Y024770D01*
X004381Y024724D01*
X004381Y024381D01*
X003781Y024381D01*
X003781Y024516D02*
X003621Y024516D01*
X003621Y024358D02*
X001171Y024358D01*
X001171Y023565D02*
X002176Y023565D01*
X002071Y023407D02*
X001171Y023407D01*
X001171Y023248D02*
X002071Y023248D01*
X002071Y023090D02*
X001171Y023090D01*
X001171Y022931D02*
X002571Y022931D01*
X002571Y023090D02*
X002731Y023090D01*
X002731Y023248D02*
X002571Y023248D01*
X002571Y023407D02*
X002731Y023407D01*
X002731Y023565D02*
X002571Y023565D01*
X002071Y022772D02*
X001171Y022772D01*
X001171Y022614D02*
X002071Y022614D01*
X002071Y022455D02*
X001171Y022455D01*
X001171Y022297D02*
X002103Y022297D01*
X003621Y023724D02*
X003781Y023724D01*
X003781Y023882D02*
X003621Y023882D01*
X003621Y024041D02*
X003781Y024041D01*
X003781Y024199D02*
X003621Y024199D01*
X003621Y024675D02*
X003781Y024675D01*
X003781Y024834D02*
X003621Y024834D01*
X004323Y024834D02*
X005579Y024834D01*
X005521Y024675D02*
X004381Y024675D01*
X004381Y024516D02*
X005521Y024516D01*
X005521Y024199D02*
X004381Y024199D01*
X004381Y024041D02*
X005521Y024041D01*
X005521Y023882D02*
X004381Y023882D01*
X004235Y023724D02*
X005666Y023724D01*
X006121Y024675D02*
X006281Y024675D01*
X006281Y024834D02*
X006121Y024834D01*
X005705Y026419D02*
X001171Y026419D01*
X001171Y026578D02*
X005566Y026578D01*
X005531Y026736D02*
X001189Y026736D01*
X001347Y026895D02*
X003446Y026895D01*
X003457Y026876D02*
X003490Y026843D01*
X003531Y026819D01*
X003577Y026807D01*
X003806Y026807D01*
X003806Y027571D01*
X003421Y027571D01*
X003421Y026963D01*
X003433Y026917D01*
X003457Y026876D01*
X003421Y027053D02*
X001506Y027053D01*
X001639Y027212D02*
X003421Y027212D01*
X003421Y027370D02*
X001671Y027370D01*
X001671Y027529D02*
X003421Y027529D01*
X003421Y027687D02*
X003108Y027687D01*
X003108Y027846D02*
X003421Y027846D01*
X003421Y028004D02*
X003108Y028004D01*
X003108Y028163D02*
X003421Y028163D01*
X003806Y027529D02*
X003896Y027529D01*
X003896Y027370D02*
X003806Y027370D01*
X003806Y027212D02*
X003896Y027212D01*
X003896Y027053D02*
X003806Y027053D01*
X003806Y026895D02*
X003896Y026895D01*
X004255Y026895D02*
X004446Y026895D01*
X004457Y026876D02*
X004490Y026843D01*
X004531Y026819D01*
X004577Y026807D01*
X004806Y026807D01*
X004806Y027571D01*
X004421Y027571D01*
X004421Y026963D01*
X004433Y026917D01*
X004457Y026876D01*
X004421Y027053D02*
X004281Y027053D01*
X004281Y027212D02*
X004421Y027212D01*
X004421Y027370D02*
X004281Y027370D01*
X004281Y027529D02*
X004421Y027529D01*
X004421Y027687D02*
X004281Y027687D01*
X004281Y027846D02*
X004421Y027846D01*
X004421Y028004D02*
X004281Y028004D01*
X004281Y028163D02*
X004421Y028163D01*
X004806Y027529D02*
X004896Y027529D01*
X004896Y027370D02*
X004806Y027370D01*
X004806Y027212D02*
X004896Y027212D01*
X004896Y027053D02*
X004806Y027053D01*
X004806Y026895D02*
X004896Y026895D01*
X005255Y026895D02*
X005466Y026895D01*
X005441Y027053D02*
X005281Y027053D01*
X005281Y027212D02*
X005441Y027212D01*
X005441Y027370D02*
X005281Y027370D01*
X005281Y027529D02*
X005441Y027529D01*
X005441Y027687D02*
X005281Y027687D01*
X005281Y027846D02*
X005441Y027846D01*
X005441Y028004D02*
X005281Y028004D01*
X005281Y028163D02*
X005441Y028163D01*
X005441Y028956D02*
X005281Y028956D01*
X005281Y029114D02*
X005441Y029114D01*
X005441Y029273D02*
X005281Y029273D01*
X005281Y029431D02*
X005441Y029431D01*
X004896Y029748D02*
X004806Y029748D01*
X004806Y029907D02*
X004896Y029907D01*
X004896Y030065D02*
X004806Y030065D01*
X004806Y030224D02*
X004896Y030224D01*
X004896Y030383D02*
X004806Y030383D01*
X004531Y030383D02*
X004490Y030359D01*
X004457Y030325D01*
X004433Y030284D01*
X004421Y030239D01*
X004421Y030065D02*
X004281Y030065D01*
X004281Y029907D02*
X004421Y029907D01*
X004421Y029748D02*
X004281Y029748D01*
X004281Y029431D02*
X004421Y029431D01*
X004421Y029273D02*
X004281Y029273D01*
X004281Y029114D02*
X004421Y029114D01*
X004421Y028956D02*
X004281Y028956D01*
X003896Y029748D02*
X003806Y029748D01*
X003806Y029907D02*
X003896Y029907D01*
X003896Y030065D02*
X003806Y030065D01*
X003806Y030224D02*
X003896Y030224D01*
X003896Y030383D02*
X003806Y030383D01*
X001843Y027687D02*
X001786Y027687D01*
X001171Y025943D02*
X011931Y025943D01*
X012089Y025785D02*
X001171Y025785D01*
X001171Y025626D02*
X012248Y025626D01*
X012406Y025468D02*
X001171Y025468D01*
X001171Y025309D02*
X012406Y025309D01*
X012411Y025151D02*
X001171Y025151D01*
X001171Y018967D02*
X002082Y018967D01*
X002071Y018809D02*
X001171Y018809D01*
X001171Y018650D02*
X002071Y018650D01*
X002071Y018492D02*
X001171Y018492D01*
X001171Y018333D02*
X002571Y018333D01*
X002571Y018321D02*
X002071Y018321D01*
X002071Y017877D01*
X002083Y017831D01*
X002107Y017790D01*
X002140Y017757D01*
X002181Y017733D01*
X002227Y017721D01*
X002571Y017721D01*
X002571Y018321D01*
X002571Y018175D02*
X002731Y018175D01*
X002731Y018016D02*
X002571Y018016D01*
X002571Y017858D02*
X002731Y017858D01*
X002076Y017858D02*
X001171Y017858D01*
X001171Y018016D02*
X002071Y018016D01*
X002071Y018175D02*
X001171Y018175D01*
X001171Y017382D02*
X019921Y017382D01*
X019921Y017541D02*
X008995Y017541D01*
X009031Y017699D02*
X019921Y017699D01*
X020013Y017858D02*
X009031Y017858D01*
X009031Y018016D02*
X021851Y018016D01*
X021081Y017858D02*
X020921Y017858D01*
X020921Y017699D02*
X021081Y017699D01*
X021081Y017541D02*
X020921Y017541D01*
X020921Y017382D02*
X021081Y017382D01*
X020921Y017223D02*
X001171Y017223D01*
X001171Y017065D02*
X019921Y017065D01*
X019921Y016906D02*
X001171Y016906D01*
X001171Y016748D02*
X007041Y016748D01*
X007041Y016589D02*
X001171Y016589D01*
X001171Y016431D02*
X007041Y016431D01*
X007041Y016272D02*
X003106Y016272D01*
X003120Y016268D02*
X003074Y016281D01*
X002731Y016281D01*
X002731Y015681D01*
X002571Y015681D01*
X002571Y016281D01*
X002227Y016281D01*
X002181Y016268D01*
X002140Y016245D01*
X002107Y016211D01*
X002083Y016170D01*
X002071Y016124D01*
X002071Y015681D01*
X002571Y015681D01*
X002571Y015521D01*
X002731Y015521D01*
X002731Y015681D01*
X003231Y015681D01*
X003231Y016124D01*
X003218Y016170D01*
X003195Y016211D01*
X003161Y016245D01*
X003120Y016268D01*
X003231Y016114D02*
X007041Y016114D01*
X007041Y015955D02*
X003231Y015955D01*
X003231Y015797D02*
X007041Y015797D01*
X007041Y015638D02*
X002731Y015638D01*
X002731Y015521D02*
X003231Y015521D01*
X003231Y015077D01*
X003218Y015031D01*
X003195Y014990D01*
X003161Y014957D01*
X003120Y014933D01*
X003074Y014921D01*
X002731Y014921D01*
X002731Y015521D01*
X002731Y015479D02*
X002571Y015479D01*
X002571Y015521D02*
X002571Y014921D01*
X002227Y014921D01*
X002181Y014933D01*
X002140Y014957D01*
X002107Y014990D01*
X002083Y015031D01*
X002071Y015077D01*
X002071Y015521D01*
X002571Y015521D01*
X002571Y015638D02*
X001171Y015638D01*
X001171Y015479D02*
X002071Y015479D01*
X002071Y015321D02*
X001171Y015321D01*
X001171Y015162D02*
X002071Y015162D01*
X002099Y015004D02*
X001171Y015004D01*
X001171Y014845D02*
X007041Y014845D01*
X007041Y014687D02*
X001171Y014687D01*
X001171Y014528D02*
X007041Y014528D01*
X007106Y014370D02*
X001171Y014370D01*
X001171Y014211D02*
X019921Y014211D01*
X019921Y014370D02*
X008696Y014370D01*
X008761Y014528D02*
X019922Y014528D01*
X019941Y014687D02*
X008761Y014687D01*
X008761Y014845D02*
X019941Y014845D01*
X019941Y015004D02*
X008761Y015004D01*
X009061Y015162D02*
X019941Y015162D01*
X019941Y015955D02*
X019397Y015955D01*
X019438Y016114D02*
X019941Y016114D01*
X019941Y016272D02*
X019438Y016272D01*
X019433Y016431D02*
X019941Y016431D01*
X019941Y016589D02*
X008761Y016589D01*
X008761Y016431D02*
X018769Y016431D01*
X018763Y016272D02*
X008761Y016272D01*
X009014Y016114D02*
X018763Y016114D01*
X018763Y016228D02*
X019100Y016228D01*
X019100Y016228D01*
X018763Y016228D01*
X018804Y015955D02*
X009061Y015955D01*
X008761Y016748D02*
X019921Y016748D01*
X019101Y016431D02*
X019101Y016431D01*
X019101Y016272D02*
X019101Y016272D01*
X019921Y013894D02*
X001171Y013894D01*
X001171Y013736D02*
X019921Y013736D01*
X020921Y013736D02*
X021081Y013736D01*
X021081Y013894D02*
X020921Y013894D01*
X020921Y014053D02*
X001171Y014053D01*
X001171Y013577D02*
X007871Y013577D01*
X007041Y015004D02*
X003203Y015004D01*
X003231Y015162D02*
X007041Y015162D01*
X007041Y015321D02*
X003231Y015321D01*
X003231Y015479D02*
X007041Y015479D01*
X008371Y020077D02*
X008531Y020077D01*
X008531Y020236D02*
X008371Y020236D01*
X008371Y020394D02*
X008531Y020394D01*
X008531Y021029D02*
X008371Y021029D01*
X008371Y021187D02*
X008531Y021187D01*
X008531Y021346D02*
X008371Y021346D01*
X008371Y021821D02*
X008531Y021821D01*
X008531Y021980D02*
X008371Y021980D01*
X008371Y022138D02*
X008531Y022138D01*
X008531Y022297D02*
X008371Y022297D01*
X008761Y023407D02*
X019941Y023407D01*
X019941Y023565D02*
X008761Y023565D01*
X009061Y023724D02*
X012773Y023724D01*
X012940Y023090D02*
X015762Y023090D01*
X015928Y023724D02*
X019941Y023724D01*
X017882Y024358D02*
X017820Y024358D01*
X016156Y021980D02*
X015369Y021980D01*
X015666Y021821D02*
X015666Y021821D01*
X015666Y021663D02*
X015666Y021663D01*
X015666Y021600D02*
X015666Y021263D01*
X015666Y021600D01*
X015666Y021600D01*
X015666Y021504D02*
X015666Y021504D01*
X015666Y021346D02*
X015666Y021346D01*
X015666Y021187D02*
X015666Y021187D01*
X015666Y021029D02*
X015666Y021029D01*
X015666Y020870D02*
X015666Y020870D01*
X015666Y020850D02*
X015666Y020513D01*
X015666Y020850D01*
X015666Y020850D01*
X015666Y020711D02*
X015666Y020711D01*
X015666Y020553D02*
X015666Y020553D01*
X015937Y020553D02*
X016100Y020553D01*
X016156Y020711D02*
X016003Y020711D01*
X016003Y020870D02*
X016156Y020870D01*
X016156Y021029D02*
X016003Y021029D01*
X015851Y021187D02*
X016156Y021187D01*
X016156Y021346D02*
X015975Y021346D01*
X016003Y021504D02*
X016156Y021504D01*
X016156Y021663D02*
X016003Y021663D01*
X015993Y021821D02*
X016156Y021821D01*
X016796Y021663D02*
X021851Y021663D01*
X021851Y021504D02*
X016796Y021504D01*
X016796Y021346D02*
X021851Y021346D01*
X021851Y021187D02*
X016796Y021187D01*
X016796Y021029D02*
X021851Y021029D01*
X021851Y020870D02*
X016796Y020870D01*
X016796Y020711D02*
X021851Y020711D01*
X021851Y020553D02*
X016796Y020553D01*
X016788Y020394D02*
X021851Y020394D01*
X021851Y020236D02*
X016688Y020236D01*
X016530Y020077D02*
X021851Y020077D01*
X021851Y019919D02*
X016371Y019919D01*
X015356Y019760D02*
X021851Y019760D01*
X021851Y019602D02*
X015356Y019602D01*
X015271Y019443D02*
X021851Y019443D01*
X021851Y019285D02*
X015112Y019285D01*
X014954Y019126D02*
X021851Y019126D01*
X021081Y013577D02*
X020921Y013577D01*
X020921Y013418D02*
X021081Y013418D01*
X019101Y006443D02*
X019101Y006443D01*
X019101Y006284D02*
X019101Y006284D01*
X021851Y001845D02*
X000351Y001845D01*
X000351Y001686D02*
X021851Y001686D01*
X021851Y001528D02*
X000351Y001528D01*
X000351Y001369D02*
X021851Y001369D01*
X021851Y001211D02*
X000351Y001211D01*
X000351Y001052D02*
X021851Y001052D01*
X021851Y000894D02*
X000351Y000894D01*
X000351Y000735D02*
X021851Y000735D01*
X021851Y000576D02*
X000351Y000576D01*
X000351Y000418D02*
X021851Y000418D01*
X007871Y009772D02*
X000351Y009772D01*
X000351Y009930D02*
X007871Y009930D01*
X007875Y010089D02*
X000351Y010089D01*
X000351Y010248D02*
X000876Y010248D01*
X000718Y010406D02*
X000351Y010406D01*
X000351Y010565D02*
X000571Y010565D01*
X000531Y010723D02*
X000351Y010723D01*
X001171Y012309D02*
X002071Y012309D01*
X002071Y012467D02*
X001171Y012467D01*
X001171Y012626D02*
X002071Y012626D01*
X002071Y012943D02*
X001171Y012943D01*
X001171Y013101D02*
X002071Y013101D01*
X002071Y013260D02*
X001171Y013260D01*
X001171Y013418D02*
X002114Y013418D01*
X002571Y012784D02*
X001171Y012784D01*
X002571Y012626D02*
X002731Y012626D01*
X002731Y015004D02*
X002571Y015004D01*
X002571Y015162D02*
X002731Y015162D01*
X002731Y015321D02*
X002571Y015321D01*
X002571Y015797D02*
X002731Y015797D01*
X002731Y015955D02*
X002571Y015955D01*
X002571Y016114D02*
X002731Y016114D01*
X002731Y016272D02*
X002571Y016272D01*
X002195Y016272D02*
X001171Y016272D01*
X001171Y016114D02*
X002071Y016114D01*
X002071Y015955D02*
X001171Y015955D01*
X001171Y015797D02*
X002071Y015797D01*
X002571Y018809D02*
X002731Y018809D01*
X002731Y018967D02*
X002571Y018967D01*
X008280Y026578D02*
X010424Y026578D01*
X010263Y026736D02*
X008420Y026736D01*
X008455Y026895D02*
X010104Y026895D01*
X009971Y027053D02*
X009782Y027053D01*
X009791Y027212D02*
X009832Y027212D01*
X009847Y028004D02*
X009791Y028004D01*
X009768Y028163D02*
X012580Y028163D01*
X012580Y028004D02*
X011883Y028004D01*
X011867Y028020D02*
X011826Y028044D01*
X011780Y028056D01*
X011499Y028056D01*
X011499Y027659D01*
X011936Y027659D01*
X011936Y027900D01*
X011924Y027946D01*
X011900Y027987D01*
X011867Y028020D01*
X011936Y027846D02*
X012580Y027846D01*
X012726Y027687D02*
X011936Y027687D01*
X011936Y027529D02*
X012698Y027529D01*
X012698Y027370D02*
X011936Y027370D01*
X011897Y027212D02*
X012698Y027212D01*
X013036Y027212D02*
X013036Y027212D01*
X013036Y027350D02*
X013036Y027013D01*
X013036Y027350D01*
X013036Y027350D01*
X013036Y027053D02*
X013036Y027053D01*
X013036Y026895D02*
X013036Y026895D01*
X013036Y026736D02*
X013036Y026736D01*
X013036Y026600D02*
X013036Y026263D01*
X013036Y026600D01*
X013036Y026600D01*
X013036Y026578D02*
X013036Y026578D01*
X013036Y026419D02*
X013036Y026419D01*
X013311Y026895D02*
X013346Y026895D01*
X013346Y027053D02*
X013308Y027053D01*
X013346Y027604D02*
X013337Y027619D01*
X013304Y027652D01*
X013263Y027676D01*
X013217Y027688D01*
X013191Y027688D01*
X013223Y027697D01*
X013264Y027721D01*
X013298Y027754D01*
X013322Y027795D01*
X013334Y027841D01*
X013334Y028082D01*
X012976Y028082D01*
X012976Y028119D01*
X013334Y028119D01*
X013334Y028361D01*
X013322Y028406D01*
X013298Y028448D01*
X013295Y028451D01*
X013424Y028451D01*
X013424Y028440D01*
X013388Y028403D01*
X013388Y027831D01*
X013346Y027729D01*
X013346Y027604D01*
X013346Y027687D02*
X013220Y027687D01*
X013334Y027846D02*
X013388Y027846D01*
X013388Y028004D02*
X013334Y028004D01*
X013334Y028163D02*
X013388Y028163D01*
X013388Y028321D02*
X013334Y028321D01*
X014540Y029114D02*
X021851Y029114D01*
X021851Y028956D02*
X014698Y028956D01*
X014793Y028797D02*
X021851Y028797D01*
X021851Y028639D02*
X014796Y028639D01*
X014913Y026260D02*
X014930Y026260D01*
X014913Y026102D02*
X014930Y026102D01*
X014913Y025943D02*
X014930Y025943D01*
X014552Y026260D02*
X014150Y026260D01*
X014235Y026102D02*
X014466Y026102D01*
X014466Y025943D02*
X014235Y025943D01*
X014235Y025785D02*
X014466Y025785D01*
X014466Y025626D02*
X014235Y025626D01*
X014212Y025468D02*
X014490Y025468D01*
X011499Y027687D02*
X011383Y027687D01*
X011383Y027659D02*
X011383Y028056D01*
X011103Y028056D01*
X011057Y028044D01*
X011016Y028020D01*
X010982Y027987D01*
X010959Y027946D01*
X010946Y027900D01*
X010946Y027659D01*
X011383Y027659D01*
X011383Y027846D02*
X011499Y027846D01*
X011499Y028004D02*
X011383Y028004D01*
X011000Y028004D02*
X010673Y028004D01*
X010735Y027846D02*
X010946Y027846D01*
X010946Y027687D02*
X010735Y027687D01*
X010735Y027529D02*
X010946Y027529D01*
X010946Y027370D02*
X010735Y027370D01*
X010692Y027212D02*
X010985Y027212D01*
X009860Y029114D02*
X009791Y029114D01*
X008865Y028163D02*
X008587Y028163D01*
X008610Y028004D02*
X008841Y028004D01*
X008841Y027846D02*
X008610Y027846D01*
X008610Y027687D02*
X008841Y027687D01*
X008841Y027529D02*
X008610Y027529D01*
X008610Y027370D02*
X008841Y027370D01*
X008841Y027212D02*
X008610Y027212D01*
X008601Y027053D02*
X008850Y027053D01*
X007692Y026895D02*
X007235Y026895D01*
X007261Y027053D02*
X007669Y027053D01*
X007660Y027212D02*
X007261Y027212D01*
X007261Y027370D02*
X007660Y027370D01*
X007660Y027529D02*
X007261Y027529D01*
X007261Y027687D02*
X007660Y027687D01*
X007660Y027846D02*
X007261Y027846D01*
X007320Y028004D02*
X007660Y028004D01*
X007684Y028163D02*
X007479Y028163D01*
X006441Y028956D02*
X006261Y028956D01*
X006261Y029114D02*
X006441Y029114D01*
X006441Y029273D02*
X006261Y029273D01*
X006261Y029431D02*
X006441Y029431D01*
X006441Y029590D02*
X006261Y029590D01*
X006261Y029748D02*
X006441Y029748D01*
X006441Y029907D02*
X006261Y029907D01*
X006261Y030065D02*
X006441Y030065D01*
X006441Y030224D02*
X006261Y030224D01*
X014063Y019760D02*
X014683Y019760D01*
X015356Y020553D02*
X015394Y020553D01*
X015316Y021187D02*
X015480Y021187D01*
X015357Y021346D02*
X015322Y021346D01*
X007110Y008186D02*
X003231Y008186D01*
X003231Y008028D02*
X007041Y008028D01*
X007041Y007869D02*
X003231Y007869D01*
X003207Y007711D02*
X007041Y007711D01*
X005547Y007394D02*
X004355Y007394D01*
X004381Y007235D02*
X005521Y007235D01*
X005521Y007077D02*
X004381Y007077D01*
X003021Y007077D02*
X000351Y007077D01*
X000351Y007235D02*
X003021Y007235D01*
X003047Y007394D02*
X000351Y007394D01*
X000351Y008504D02*
X002071Y008504D01*
X002071Y008662D02*
X000351Y008662D01*
X000351Y008821D02*
X002071Y008821D01*
X002221Y008979D02*
X000351Y008979D01*
X002571Y008979D02*
X002731Y008979D01*
X002731Y008821D02*
X002571Y008821D01*
X002571Y008662D02*
X002731Y008662D01*
X002731Y008504D02*
X002571Y008504D01*
X002571Y008028D02*
X002731Y008028D01*
X002731Y007869D02*
X002571Y007869D01*
X002571Y007711D02*
X002731Y007711D01*
D33*
X001601Y007601D03*
X001601Y008351D03*
X001601Y009101D03*
X001601Y009851D03*
X001601Y011351D03*
X001601Y012101D03*
X001601Y012851D03*
X001601Y013601D03*
X001601Y014351D03*
X001601Y015101D03*
X001601Y015851D03*
X001601Y016601D03*
X001601Y017351D03*
X001601Y018101D03*
X001601Y018851D03*
X001601Y019601D03*
X001601Y020351D03*
X001601Y021101D03*
X001601Y021851D03*
X001601Y022601D03*
X001601Y023351D03*
X001601Y024101D03*
X001601Y024851D03*
X001601Y025601D03*
X002226Y025601D03*
X002851Y025601D03*
X003476Y025601D03*
X004101Y025601D03*
X004726Y025601D03*
X005351Y025601D03*
X005976Y025601D03*
X006601Y025601D03*
X007226Y025601D03*
X007851Y025601D03*
X008476Y025601D03*
X009101Y025601D03*
X009726Y025601D03*
X010351Y025601D03*
X010976Y025601D03*
X011601Y025601D03*
X012851Y030351D03*
X013601Y030351D03*
X014351Y030351D03*
X015226Y030351D03*
X016101Y030351D03*
X016851Y030351D03*
X017601Y030351D03*
X018351Y030351D03*
X019101Y030351D03*
X019851Y030351D03*
X020601Y030351D03*
X021351Y030351D03*
X021351Y029601D03*
X021351Y028851D03*
X021351Y028101D03*
X021351Y027351D03*
X021351Y021351D03*
X021351Y020601D03*
X021351Y019851D03*
X021351Y019101D03*
X020726Y018726D03*
X021351Y018351D03*
X019976Y018726D03*
X019226Y018726D03*
X018476Y018726D03*
X017726Y018726D03*
X016976Y018726D03*
X016226Y018726D03*
X015476Y018726D03*
X014726Y018726D03*
X013976Y018726D03*
X013226Y018726D03*
X012476Y018726D03*
X011726Y018726D03*
X010976Y018726D03*
X010226Y018726D03*
X009476Y018726D03*
X009351Y012476D03*
X010101Y012476D03*
X010851Y012476D03*
X011601Y012476D03*
X012351Y012476D03*
X013101Y012476D03*
X013851Y012476D03*
X014601Y012476D03*
X015351Y012476D03*
X016101Y012476D03*
X016851Y012476D03*
X017601Y012476D03*
X018351Y012476D03*
X019101Y012476D03*
X019851Y012476D03*
X020601Y012476D03*
X021351Y012851D03*
X021351Y012101D03*
X021351Y011351D03*
X021351Y010601D03*
X021351Y009851D03*
X021351Y003851D03*
X021351Y003101D03*
X021351Y002351D03*
X021351Y001601D03*
X021351Y000851D03*
X020601Y000851D03*
X019851Y000851D03*
X019101Y000851D03*
X018351Y000851D03*
X017601Y000851D03*
X016851Y000851D03*
X016101Y000851D03*
X015351Y000851D03*
X014601Y000851D03*
X013851Y000851D03*
X013101Y000851D03*
X012351Y000851D03*
X011601Y000851D03*
X010851Y000851D03*
X010101Y000851D03*
X009351Y000851D03*
X008601Y000851D03*
X007851Y000851D03*
X007101Y000851D03*
X006351Y000851D03*
X005601Y000851D03*
X004851Y000851D03*
X003976Y000851D03*
X003101Y000851D03*
X002351Y000851D03*
X001601Y000851D03*
X001601Y001601D03*
X001601Y002351D03*
X001601Y003101D03*
X001601Y003851D03*
X001601Y004601D03*
X001601Y005351D03*
X001601Y006101D03*
X001601Y006851D03*
D34*
X011476Y007101D02*
X011827Y007101D01*
X012595Y006077D02*
X012595Y005732D01*
X013107Y005732D02*
X013107Y006077D01*
X013874Y007101D02*
X014226Y007101D01*
X013107Y008124D02*
X013107Y008482D01*
X013226Y008601D01*
X013226Y008786D01*
X012595Y008482D02*
X012595Y008124D01*
X012595Y008482D02*
X012476Y008601D01*
X012476Y008786D01*
D35*
X011827Y006589D02*
X011788Y006550D01*
X011535Y004216D02*
X011291Y003663D01*
X013913Y006550D02*
X013874Y006589D01*
X014166Y004216D02*
X014411Y003663D01*
D36*
X006851Y027617D02*
X006851Y028101D01*
X007351Y028601D01*
X007851Y028601D01*
X008135Y028885D01*
X008135Y029601D01*
X008135Y029585D01*
X006851Y029585D01*
X009316Y029601D02*
X010260Y029601D01*
X010260Y029191D01*
X010601Y028851D01*
X013726Y028851D01*
D37*
X012726Y025226D03*
X012726Y022851D03*
X015976Y022851D03*
X015976Y025226D03*
M02*
